<svg width="1440" height="1024" viewBox="0 0 1440 1024" fill="none" xmlns="http://www.w3.org/2000/svg">
<rect width="1440" height="1024" fill="white"/>
<g filter="url(#filter0_d_1_2)">
<rect x="289.593" y="204.455" width="860.813" height="675.921" fill="white"/>
</g>
<rect x="360.379" y="721.756" width="719.243" height="80.8394" stroke="#202020" stroke-width="4"/>
<path d="M667.18 770.676V753.876H671.932V766.908H679.948V770.676H667.18ZM697.285 771.012C695.941 771.012 694.701 770.796 693.565 770.364C692.429 769.932 691.437 769.324 690.589 768.54C689.757 767.74 689.109 766.812 688.645 765.756C688.181 764.7 687.949 763.54 687.949 762.276C687.949 761.012 688.181 759.852 688.645 758.796C689.109 757.74 689.757 756.82 690.589 756.036C691.437 755.236 692.429 754.62 693.565 754.188C694.701 753.756 695.941 753.54 697.285 753.54C698.645 753.54 699.885 753.756 701.005 754.188C702.141 754.62 703.125 755.236 703.957 756.036C704.789 756.82 705.437 757.74 705.901 758.796C706.381 759.852 706.621 761.012 706.621 762.276C706.621 763.54 706.381 764.708 705.901 765.78C705.437 766.836 704.789 767.756 703.957 768.54C703.125 769.324 702.141 769.932 701.005 770.364C699.885 770.796 698.645 771.012 697.285 771.012ZM697.285 767.076C697.925 767.076 698.517 766.964 699.061 766.74C699.621 766.516 700.101 766.196 700.501 765.78C700.917 765.348 701.237 764.836 701.461 764.244C701.701 763.652 701.821 762.996 701.821 762.276C701.821 761.54 701.701 760.884 701.461 760.308C701.237 759.716 700.917 759.212 700.501 758.796C700.101 758.364 699.621 758.036 699.061 757.812C698.517 757.588 697.925 757.476 697.285 757.476C696.645 757.476 696.045 757.588 695.485 757.812C694.941 758.036 694.461 758.364 694.045 758.796C693.645 759.212 693.325 759.716 693.085 760.308C692.861 760.884 692.749 761.54 692.749 762.276C692.749 762.996 692.861 763.652 693.085 764.244C693.325 764.836 693.645 765.348 694.045 765.78C694.461 766.196 694.941 766.516 695.485 766.74C696.045 766.964 696.645 767.076 697.285 767.076ZM724.494 771.012C723.166 771.012 721.934 770.804 720.798 770.388C719.662 769.956 718.678 769.348 717.846 768.564C717.03 767.78 716.39 766.86 715.926 765.804C715.462 764.732 715.23 763.556 715.23 762.276C715.23 760.996 715.462 759.828 715.926 758.772C716.39 757.7 717.038 756.772 717.87 755.988C718.702 755.204 719.686 754.604 720.822 754.188C721.974 753.756 723.23 753.54 724.59 753.54C726.174 753.54 727.59 753.804 728.838 754.332C730.086 754.86 731.118 755.62 731.934 756.612L728.91 759.348C728.334 758.724 727.71 758.26 727.038 757.956C726.382 757.636 725.646 757.476 724.83 757.476C724.11 757.476 723.454 757.588 722.862 757.812C722.27 758.036 721.766 758.364 721.35 758.796C720.934 759.212 720.606 759.716 720.366 760.308C720.142 760.884 720.03 761.54 720.03 762.276C720.03 762.98 720.142 763.628 720.366 764.22C720.606 764.812 720.934 765.324 721.35 765.756C721.766 766.172 722.262 766.5 722.838 766.74C723.43 766.964 724.078 767.076 724.782 767.076C725.486 767.076 726.174 766.964 726.846 766.74C727.518 766.5 728.198 766.1 728.886 765.54L731.55 768.876C730.59 769.564 729.478 770.092 728.214 770.46C726.95 770.828 725.71 771.012 724.494 771.012ZM727.35 768.252V761.916H731.55V768.876L727.35 768.252ZM741.547 770.676V753.876H746.299V770.676H741.547ZM756.664 770.676V753.876H760.576L769.84 765.06H767.992V753.876H772.648V770.676H768.736L759.472 759.492H761.32V770.676H756.664Z" fill="#202020"/>
<path d="M633.016 333.058V288.258H641.336V326.018H664.76V333.058H633.016ZM685.608 333.506C682.109 333.506 678.995 332.759 676.264 331.266C673.533 329.73 671.379 327.639 669.8 324.994C668.221 322.349 667.432 319.341 667.432 315.97C667.432 312.557 668.221 309.549 669.8 306.946C671.379 304.301 673.533 302.231 676.264 300.738C678.995 299.245 682.109 298.498 685.608 298.498C689.149 298.498 692.285 299.245 695.016 300.738C697.789 302.231 699.944 304.279 701.48 306.882C703.059 309.485 703.848 312.514 703.848 315.97C703.848 319.341 703.059 322.349 701.48 324.994C699.944 327.639 697.789 329.73 695.016 331.266C692.285 332.759 689.149 333.506 685.608 333.506ZM685.608 326.658C687.571 326.658 689.32 326.231 690.856 325.378C692.392 324.525 693.587 323.287 694.44 321.666C695.336 320.045 695.784 318.146 695.784 315.97C695.784 313.751 695.336 311.853 694.44 310.274C693.587 308.653 692.392 307.415 690.856 306.562C689.32 305.709 687.592 305.282 685.672 305.282C683.709 305.282 681.96 305.709 680.424 306.562C678.931 307.415 677.736 308.653 676.84 310.274C675.944 311.853 675.496 313.751 675.496 315.97C675.496 318.146 675.944 320.045 676.84 321.666C677.736 323.287 678.931 324.525 680.424 325.378C681.96 326.231 683.688 326.658 685.608 326.658ZM726.986 345.922C723.829 345.922 720.735 345.495 717.706 344.642C714.719 343.831 712.266 342.637 710.346 341.058L713.93 335.042C715.423 336.279 717.301 337.261 719.562 337.986C721.866 338.754 724.191 339.138 726.538 339.138C730.293 339.138 733.045 338.263 734.794 336.514C736.543 334.807 737.418 332.226 737.418 328.77V322.69L738.058 314.946L737.802 307.202V298.882H745.418V327.874C745.418 334.061 743.839 338.605 740.682 341.506C737.525 344.45 732.959 345.922 726.986 345.922ZM725.962 331.522C722.719 331.522 719.775 330.839 717.13 329.474C714.527 328.066 712.458 326.125 710.922 323.65C709.429 321.175 708.682 318.274 708.682 314.946C708.682 311.661 709.429 308.781 710.922 306.306C712.458 303.831 714.527 301.911 717.13 300.546C719.775 299.181 722.719 298.498 725.962 298.498C728.863 298.498 731.466 299.074 733.77 300.226C736.074 301.378 737.909 303.17 739.274 305.602C740.682 308.034 741.386 311.149 741.386 314.946C741.386 318.743 740.682 321.879 739.274 324.354C737.909 326.786 736.074 328.599 733.77 329.794C731.466 330.946 728.863 331.522 725.962 331.522ZM727.178 324.738C729.183 324.738 730.975 324.333 732.554 323.522C734.133 322.669 735.349 321.517 736.202 320.066C737.098 318.573 737.546 316.866 737.546 314.946C737.546 313.026 737.098 311.341 736.202 309.89C735.349 308.397 734.133 307.266 732.554 306.498C730.975 305.687 729.183 305.282 727.178 305.282C725.173 305.282 723.359 305.687 721.738 306.498C720.159 307.266 718.922 308.397 718.026 309.89C717.173 311.341 716.746 313.026 716.746 314.946C716.746 316.866 717.173 318.573 718.026 320.066C718.922 321.517 720.159 322.669 721.738 323.522C723.359 324.333 725.173 324.738 727.178 324.738ZM755.936 333.058V298.882H763.936V333.058H755.936ZM759.968 293.25C758.474 293.25 757.237 292.781 756.256 291.842C755.317 290.903 754.848 289.773 754.848 288.45C754.848 287.085 755.317 285.954 756.256 285.058C757.237 284.119 758.474 283.65 759.968 283.65C761.461 283.65 762.677 284.098 763.616 284.994C764.597 285.847 765.088 286.935 765.088 288.258C765.088 289.666 764.618 290.861 763.68 291.842C762.741 292.781 761.504 293.25 759.968 293.25ZM793.828 298.498C796.558 298.498 798.99 299.031 801.124 300.098C803.3 301.165 805.006 302.807 806.244 305.026C807.481 307.202 808.1 310.018 808.1 313.474V333.058H800.1V314.498C800.1 311.469 799.374 309.207 797.924 307.714C796.516 306.221 794.532 305.474 791.972 305.474C790.094 305.474 788.43 305.858 786.98 306.626C785.529 307.394 784.398 308.546 783.588 310.082C782.82 311.575 782.436 313.474 782.436 315.778V333.058H774.436V298.882H782.052V308.098L780.708 305.282C781.902 303.106 783.63 301.442 785.892 300.29C788.196 299.095 790.841 298.498 793.828 298.498Z" fill="#202020"/>
<rect x="360.379" y="420.995" width="719.243" height="80.8394" stroke="#202020" stroke-width="4"/>
<rect x="386.596" y="398.007" width="164.348" height="41.9758" fill="white"/>
<path d="M435.474 417.943H444.114V419.983H435.474V417.943ZM435.69 425.407H445.482V427.495H433.29V410.695H445.146V412.783H435.69V425.407ZM447.748 421.903V419.911H454.204V421.903H447.748ZM458.087 427.495V410.695H460.055L467.591 423.391H466.535L473.975 410.695H475.943L475.967 427.495H473.663L473.639 414.319H474.191L467.567 425.455H466.463L459.791 414.319H460.391V427.495H458.087ZM488.569 427.495V424.807L488.449 424.303V419.719C488.449 418.743 488.161 417.991 487.585 417.463C487.025 416.919 486.177 416.647 485.041 416.647C484.289 416.647 483.553 416.775 482.833 417.031C482.113 417.271 481.505 417.599 481.009 418.015L480.049 416.287C480.705 415.759 481.489 415.359 482.401 415.087C483.329 414.799 484.297 414.655 485.305 414.655C487.049 414.655 488.393 415.079 489.337 415.927C490.281 416.775 490.753 418.071 490.753 419.815V427.495H488.569ZM484.393 427.639C483.449 427.639 482.617 427.479 481.897 427.159C481.193 426.839 480.649 426.399 480.265 425.839C479.881 425.263 479.689 424.615 479.689 423.895C479.689 423.207 479.849 422.583 480.169 422.023C480.505 421.463 481.041 421.015 481.777 420.679C482.529 420.343 483.537 420.175 484.801 420.175H488.833V421.831H484.897C483.745 421.831 482.969 422.023 482.569 422.407C482.169 422.791 481.969 423.255 481.969 423.799C481.969 424.423 482.217 424.927 482.713 425.311C483.209 425.679 483.897 425.863 484.777 425.863C485.641 425.863 486.393 425.671 487.033 425.287C487.689 424.903 488.161 424.343 488.449 423.607L488.905 425.191C488.601 425.943 488.065 426.543 487.297 426.991C486.529 427.423 485.561 427.639 484.393 427.639ZM495.017 427.495V414.775H497.321V427.495H495.017ZM496.169 412.327C495.721 412.327 495.345 412.183 495.041 411.895C494.753 411.607 494.609 411.255 494.609 410.839C494.609 410.407 494.753 410.047 495.041 409.759C495.345 409.471 495.721 409.327 496.169 409.327C496.617 409.327 496.985 409.471 497.273 409.759C497.577 410.031 497.729 410.375 497.729 410.791C497.729 411.223 497.585 411.591 497.297 411.895C497.009 412.183 496.633 412.327 496.169 412.327ZM501.72 427.495V409.687H504.024V427.495H501.72Z" fill="black"/>
<rect x="360.379" y="553.294" width="719.243" height="80.8394" stroke="#202020" stroke-width="4"/>
<rect x="386.596" y="530.306" width="164.348" height="41.9758" fill="white"/>
<path d="M412.29 559.794V542.994H418.842C420.314 542.994 421.57 543.226 422.61 543.69C423.65 544.154 424.45 544.826 425.01 545.706C425.57 546.586 425.85 547.634 425.85 548.85C425.85 550.066 425.57 551.114 425.01 551.994C424.45 552.858 423.65 553.53 422.61 554.01C421.57 554.474 420.314 554.706 418.842 554.706H413.61L414.69 553.578V559.794H412.29ZM414.69 553.818L413.61 552.618H418.77C420.306 552.618 421.466 552.29 422.25 551.634C423.05 550.978 423.45 550.05 423.45 548.85C423.45 547.65 423.05 546.722 422.25 546.066C421.466 545.41 420.306 545.082 418.77 545.082H413.61L414.69 543.882V553.818ZM436.819 559.794V557.106L436.699 556.602V552.018C436.699 551.042 436.411 550.29 435.835 549.762C435.275 549.218 434.427 548.946 433.291 548.946C432.539 548.946 431.803 549.074 431.083 549.33C430.363 549.57 429.755 549.898 429.259 550.314L428.299 548.586C428.955 548.058 429.739 547.658 430.651 547.386C431.579 547.098 432.547 546.954 433.555 546.954C435.299 546.954 436.643 547.378 437.587 548.226C438.531 549.074 439.003 550.37 439.003 552.114V559.794H436.819ZM432.643 559.938C431.699 559.938 430.867 559.778 430.147 559.458C429.443 559.138 428.899 558.698 428.515 558.138C428.131 557.562 427.939 556.914 427.939 556.194C427.939 555.506 428.099 554.882 428.419 554.322C428.755 553.762 429.291 553.314 430.027 552.978C430.779 552.642 431.787 552.474 433.051 552.474H437.083V554.13H433.147C431.995 554.13 431.219 554.322 430.819 554.706C430.419 555.09 430.219 555.554 430.219 556.098C430.219 556.722 430.467 557.226 430.963 557.61C431.459 557.978 432.147 558.162 433.027 558.162C433.891 558.162 434.643 557.97 435.283 557.586C435.939 557.202 436.411 556.642 436.699 555.906L437.155 557.49C436.851 558.242 436.315 558.842 435.547 559.29C434.779 559.722 433.811 559.938 432.643 559.938ZM446.915 559.938C445.859 559.938 444.851 559.794 443.891 559.506C442.947 559.218 442.203 558.866 441.659 558.45L442.619 556.626C443.163 556.994 443.835 557.306 444.635 557.562C445.435 557.818 446.251 557.946 447.083 557.946C448.155 557.946 448.923 557.794 449.387 557.49C449.867 557.186 450.107 556.762 450.107 556.218C450.107 555.818 449.963 555.506 449.675 555.282C449.387 555.058 449.003 554.89 448.523 554.778C448.059 554.666 447.539 554.57 446.963 554.49C446.387 554.394 445.811 554.282 445.235 554.154C444.659 554.01 444.131 553.818 443.651 553.578C443.171 553.322 442.787 552.978 442.499 552.546C442.211 552.098 442.067 551.506 442.067 550.77C442.067 550.002 442.283 549.33 442.715 548.754C443.147 548.178 443.755 547.738 444.539 547.434C445.339 547.114 446.283 546.954 447.371 546.954C448.203 546.954 449.043 547.058 449.891 547.266C450.755 547.458 451.459 547.738 452.003 548.106L451.019 549.93C450.443 549.546 449.843 549.282 449.219 549.138C448.595 548.994 447.971 548.922 447.347 548.922C446.339 548.922 445.587 549.09 445.091 549.426C444.595 549.746 444.347 550.162 444.347 550.674C444.347 551.106 444.491 551.442 444.779 551.682C445.083 551.906 445.467 552.082 445.931 552.21C446.411 552.338 446.939 552.45 447.515 552.546C448.091 552.626 448.667 552.738 449.243 552.882C449.819 553.01 450.339 553.194 450.803 553.434C451.283 553.674 451.667 554.01 451.955 554.442C452.259 554.874 452.411 555.45 452.411 556.17C452.411 556.938 452.187 557.602 451.739 558.162C451.291 558.722 450.659 559.162 449.843 559.482C449.027 559.786 448.051 559.938 446.915 559.938ZM458.938 559.938C457.882 559.938 456.874 559.794 455.914 559.506C454.97 559.218 454.226 558.866 453.682 558.45L454.642 556.626C455.186 556.994 455.858 557.306 456.658 557.562C457.458 557.818 458.274 557.946 459.106 557.946C460.178 557.946 460.946 557.794 461.41 557.49C461.89 557.186 462.13 556.762 462.13 556.218C462.13 555.818 461.986 555.506 461.698 555.282C461.41 555.058 461.026 554.89 460.546 554.778C460.082 554.666 459.562 554.57 458.986 554.49C458.41 554.394 457.834 554.282 457.258 554.154C456.682 554.01 456.154 553.818 455.674 553.578C455.194 553.322 454.81 552.978 454.522 552.546C454.234 552.098 454.09 551.506 454.09 550.77C454.09 550.002 454.306 549.33 454.738 548.754C455.17 548.178 455.778 547.738 456.562 547.434C457.362 547.114 458.306 546.954 459.394 546.954C460.226 546.954 461.066 547.058 461.914 547.266C462.778 547.458 463.482 547.738 464.026 548.106L463.042 549.93C462.466 549.546 461.866 549.282 461.242 549.138C460.618 548.994 459.994 548.922 459.37 548.922C458.362 548.922 457.61 549.09 457.114 549.426C456.618 549.746 456.37 550.162 456.37 550.674C456.37 551.106 456.514 551.442 456.802 551.682C457.106 551.906 457.49 552.082 457.954 552.21C458.434 552.338 458.962 552.45 459.538 552.546C460.114 552.626 460.69 552.738 461.266 552.882C461.842 553.01 462.362 553.194 462.826 553.434C463.306 553.674 463.69 554.01 463.978 554.442C464.282 554.874 464.434 555.45 464.434 556.17C464.434 556.938 464.21 557.602 463.762 558.162C463.314 558.722 462.682 559.162 461.866 559.482C461.05 559.786 460.074 559.938 458.938 559.938ZM469.767 559.794L465.039 547.074H467.223L471.423 558.594H470.391L474.759 547.074H476.703L480.975 558.594H479.967L484.263 547.074H486.327L481.575 559.794H479.367L475.359 549.282H476.031L471.975 559.794H469.767ZM493.762 559.938C492.482 559.938 491.346 559.658 490.354 559.098C489.362 558.538 488.578 557.77 488.002 556.794C487.426 555.802 487.138 554.682 487.138 553.434C487.138 552.17 487.426 551.05 488.002 550.074C488.578 549.098 489.362 548.338 490.354 547.794C491.346 547.234 492.482 546.954 493.762 546.954C495.026 546.954 496.154 547.234 497.146 547.794C498.154 548.338 498.938 549.098 499.498 550.074C500.074 551.034 500.362 552.154 500.362 553.434C500.362 554.698 500.074 555.818 499.498 556.794C498.938 557.77 498.154 558.538 497.146 559.098C496.154 559.658 495.026 559.938 493.762 559.938ZM493.762 557.922C494.578 557.922 495.306 557.738 495.946 557.37C496.602 557.002 497.114 556.482 497.482 555.81C497.85 555.122 498.034 554.33 498.034 553.434C498.034 552.522 497.85 551.738 497.482 551.082C497.114 550.41 496.602 549.89 495.946 549.522C495.306 549.154 494.578 548.97 493.762 548.97C492.946 548.97 492.218 549.154 491.578 549.522C490.938 549.89 490.426 550.41 490.042 551.082C489.658 551.738 489.466 552.522 489.466 553.434C489.466 554.33 489.658 555.122 490.042 555.81C490.426 556.482 490.938 557.002 491.578 557.37C492.218 557.738 492.946 557.922 493.762 557.922ZM503.548 559.794V547.074H505.756V550.53L505.54 549.666C505.892 548.786 506.484 548.114 507.316 547.65C508.148 547.186 509.172 546.954 510.388 546.954V549.186C510.292 549.17 510.196 549.162 510.1 549.162C510.02 549.162 509.94 549.162 509.86 549.162C508.628 549.162 507.652 549.53 506.932 550.266C506.212 551.002 505.852 552.066 505.852 553.458V559.794H503.548ZM518.366 559.938C517.134 559.938 516.03 559.666 515.054 559.122C514.094 558.578 513.334 557.818 512.774 556.842C512.214 555.866 511.934 554.73 511.934 553.434C511.934 552.138 512.214 551.01 512.774 550.05C513.334 549.074 514.094 548.314 515.054 547.77C516.03 547.226 517.134 546.954 518.366 546.954C519.438 546.954 520.406 547.194 521.27 547.674C522.134 548.154 522.822 548.874 523.334 549.834C523.862 550.794 524.126 551.994 524.126 553.434C524.126 554.874 523.87 556.074 523.358 557.034C522.862 557.994 522.182 558.722 521.318 559.218C520.454 559.698 519.47 559.938 518.366 559.938ZM518.558 557.922C519.358 557.922 520.078 557.738 520.718 557.37C521.374 557.002 521.886 556.482 522.254 555.81C522.638 555.122 522.83 554.33 522.83 553.434C522.83 552.522 522.638 551.738 522.254 551.082C521.886 550.41 521.374 549.89 520.718 549.522C520.078 549.154 519.358 548.97 518.558 548.97C517.742 548.97 517.014 549.154 516.374 549.522C515.734 549.89 515.222 550.41 514.838 551.082C514.454 551.738 514.262 552.522 514.262 553.434C514.262 554.33 514.454 555.122 514.838 555.81C515.222 556.482 515.734 557.002 516.374 557.37C517.014 557.738 517.742 557.922 518.558 557.922ZM522.902 559.794V556.362L523.046 553.41L522.806 550.458V541.986H525.11V559.794H522.902Z" fill="black"/>
<path d="M426.279 841.614H434.943V843.678H426.279V841.614ZM426.519 850.47H424.119V833.67H435.975V835.758H426.519V850.47ZM444.067 850.614C442.787 850.614 441.651 850.334 440.659 849.774C439.667 849.214 438.883 848.446 438.307 847.47C437.731 846.478 437.443 845.358 437.443 844.11C437.443 842.846 437.731 841.726 438.307 840.75C438.883 839.774 439.667 839.014 440.659 838.47C441.651 837.91 442.787 837.63 444.067 837.63C445.331 837.63 446.459 837.91 447.451 838.47C448.459 839.014 449.243 839.774 449.803 840.75C450.379 841.71 450.667 842.83 450.667 844.11C450.667 845.374 450.379 846.494 449.803 847.47C449.243 848.446 448.459 849.214 447.451 849.774C446.459 850.334 445.331 850.614 444.067 850.614ZM444.067 848.598C444.883 848.598 445.611 848.414 446.251 848.046C446.907 847.678 447.419 847.158 447.787 846.486C448.155 845.798 448.339 845.006 448.339 844.11C448.339 843.198 448.155 842.414 447.787 841.758C447.419 841.086 446.907 840.566 446.251 840.198C445.611 839.83 444.883 839.646 444.067 839.646C443.251 839.646 442.523 839.83 441.883 840.198C441.243 840.566 440.731 841.086 440.347 841.758C439.963 842.414 439.771 843.198 439.771 844.11C439.771 845.006 439.963 845.798 440.347 846.486C440.731 847.158 441.243 847.678 441.883 848.046C442.523 848.414 443.251 848.598 444.067 848.598ZM453.853 850.47V837.75H456.061V841.206L455.845 840.342C456.197 839.462 456.789 838.79 457.621 838.326C458.453 837.862 459.477 837.63 460.693 837.63V839.862C460.597 839.846 460.501 839.838 460.405 839.838C460.325 839.838 460.245 839.838 460.165 839.838C458.933 839.838 457.957 840.206 457.237 840.942C456.517 841.678 456.157 842.742 456.157 844.134V850.47H453.853ZM468.984 855.27C467.816 855.27 466.68 855.102 465.576 854.766C464.488 854.446 463.6 853.982 462.912 853.374L464.016 851.598C464.608 852.11 465.336 852.51 466.2 852.798C467.064 853.102 467.968 853.254 468.912 853.254C470.416 853.254 471.52 852.902 472.224 852.198C472.928 851.494 473.28 850.422 473.28 848.982V846.294L473.52 843.774L473.4 841.23V837.75H475.584V848.742C475.584 850.982 475.024 852.63 473.904 853.686C472.784 854.742 471.144 855.27 468.984 855.27ZM468.696 849.942C467.464 849.942 466.36 849.686 465.384 849.174C464.424 848.646 463.656 847.918 463.08 846.99C462.52 846.062 462.24 844.99 462.24 843.774C462.24 842.542 462.52 841.47 463.08 840.558C463.656 839.63 464.424 838.91 465.384 838.398C466.36 837.886 467.464 837.63 468.696 837.63C469.784 837.63 470.776 837.854 471.672 838.302C472.568 838.734 473.28 839.406 473.808 840.318C474.352 841.23 474.624 842.382 474.624 843.774C474.624 845.15 474.352 846.294 473.808 847.206C473.28 848.118 472.568 848.806 471.672 849.27C470.776 849.718 469.784 849.942 468.696 849.942ZM468.96 847.926C469.808 847.926 470.56 847.75 471.216 847.398C471.872 847.046 472.384 846.558 472.752 845.934C473.136 845.31 473.328 844.59 473.328 843.774C473.328 842.958 473.136 842.238 472.752 841.614C472.384 840.99 471.872 840.51 471.216 840.174C470.56 839.822 469.808 839.646 468.96 839.646C468.112 839.646 467.352 839.822 466.68 840.174C466.024 840.51 465.504 840.99 465.12 841.614C464.752 842.238 464.568 842.958 464.568 843.774C464.568 844.59 464.752 845.31 465.12 845.934C465.504 846.558 466.024 847.046 466.68 847.398C467.352 847.75 468.112 847.926 468.96 847.926ZM485.434 850.614C484.154 850.614 483.018 850.334 482.026 849.774C481.034 849.214 480.25 848.446 479.674 847.47C479.098 846.478 478.81 845.358 478.81 844.11C478.81 842.846 479.098 841.726 479.674 840.75C480.25 839.774 481.034 839.014 482.026 838.47C483.018 837.91 484.154 837.63 485.434 837.63C486.698 837.63 487.826 837.91 488.818 838.47C489.826 839.014 490.61 839.774 491.17 840.75C491.746 841.71 492.034 842.83 492.034 844.11C492.034 845.374 491.746 846.494 491.17 847.47C490.61 848.446 489.826 849.214 488.818 849.774C487.826 850.334 486.698 850.614 485.434 850.614ZM485.434 848.598C486.25 848.598 486.978 848.414 487.618 848.046C488.274 847.678 488.786 847.158 489.154 846.486C489.522 845.798 489.706 845.006 489.706 844.11C489.706 843.198 489.522 842.414 489.154 841.758C488.786 841.086 488.274 840.566 487.618 840.198C486.978 839.83 486.25 839.646 485.434 839.646C484.618 839.646 483.89 839.83 483.25 840.198C482.61 840.566 482.098 841.086 481.714 841.758C481.33 842.414 481.138 843.198 481.138 844.11C481.138 845.006 481.33 845.798 481.714 846.486C482.098 847.158 482.61 847.678 483.25 848.046C483.89 848.414 484.618 848.598 485.434 848.598ZM499.588 850.614C498.308 850.614 497.316 850.27 496.612 849.582C495.908 848.894 495.556 847.91 495.556 846.63V834.966H497.86V846.534C497.86 847.222 498.028 847.75 498.364 848.118C498.716 848.486 499.212 848.67 499.852 848.67C500.572 848.67 501.172 848.47 501.652 848.07L502.372 849.726C502.02 850.03 501.596 850.254 501.1 850.398C500.62 850.542 500.116 850.614 499.588 850.614ZM493.396 839.646V837.75H501.508V839.646H493.396ZM511.939 850.47V833.67H518.491C519.963 833.67 521.219 833.902 522.259 834.366C523.299 834.83 524.099 835.502 524.659 836.382C525.219 837.262 525.499 838.31 525.499 839.526C525.499 840.742 525.219 841.79 524.659 842.67C524.099 843.534 523.299 844.206 522.259 844.686C521.219 845.15 519.963 845.382 518.491 845.382H513.259L514.339 844.254V850.47H511.939ZM514.339 844.494L513.259 843.294H518.419C519.955 843.294 521.115 842.966 521.899 842.31C522.699 841.654 523.099 840.726 523.099 839.526C523.099 838.326 522.699 837.398 521.899 836.742C521.115 836.086 519.955 835.758 518.419 835.758H513.259L514.339 834.558V844.494ZM536.468 850.47V847.782L536.348 847.278V842.694C536.348 841.718 536.06 840.966 535.484 840.438C534.924 839.894 534.076 839.622 532.94 839.622C532.188 839.622 531.452 839.75 530.732 840.006C530.012 840.246 529.404 840.574 528.908 840.99L527.948 839.262C528.604 838.734 529.388 838.334 530.3 838.062C531.228 837.774 532.196 837.63 533.204 837.63C534.948 837.63 536.292 838.054 537.236 838.902C538.18 839.75 538.652 841.046 538.652 842.79V850.47H536.468ZM532.292 850.614C531.348 850.614 530.516 850.454 529.796 850.134C529.092 849.814 528.548 849.374 528.164 848.814C527.78 848.238 527.588 847.59 527.588 846.87C527.588 846.182 527.748 845.558 528.068 844.998C528.404 844.438 528.94 843.99 529.676 843.654C530.428 843.318 531.436 843.15 532.7 843.15H536.732V844.806H532.796C531.644 844.806 530.868 844.998 530.468 845.382C530.068 845.766 529.868 846.23 529.868 846.774C529.868 847.398 530.116 847.902 530.612 848.286C531.108 848.654 531.796 848.838 532.676 848.838C533.54 848.838 534.292 848.646 534.932 848.262C535.588 847.878 536.06 847.318 536.348 846.582L536.804 848.166C536.5 848.918 535.964 849.518 535.196 849.966C534.428 850.398 533.46 850.614 532.292 850.614ZM546.564 850.614C545.508 850.614 544.5 850.47 543.54 850.182C542.596 849.894 541.852 849.542 541.308 849.126L542.268 847.302C542.812 847.67 543.484 847.982 544.284 848.238C545.084 848.494 545.9 848.622 546.732 848.622C547.804 848.622 548.572 848.47 549.036 848.166C549.516 847.862 549.756 847.438 549.756 846.894C549.756 846.494 549.612 846.182 549.324 845.958C549.036 845.734 548.652 845.566 548.172 845.454C547.708 845.342 547.188 845.246 546.612 845.166C546.036 845.07 545.46 844.958 544.884 844.83C544.308 844.686 543.78 844.494 543.3 844.254C542.82 843.998 542.436 843.654 542.148 843.222C541.86 842.774 541.716 842.182 541.716 841.446C541.716 840.678 541.932 840.006 542.364 839.43C542.796 838.854 543.404 838.414 544.188 838.11C544.988 837.79 545.932 837.63 547.02 837.63C547.852 837.63 548.692 837.734 549.54 837.942C550.404 838.134 551.108 838.414 551.652 838.782L550.668 840.606C550.092 840.222 549.492 839.958 548.868 839.814C548.244 839.67 547.62 839.598 546.996 839.598C545.988 839.598 545.236 839.766 544.74 840.102C544.244 840.422 543.996 840.838 543.996 841.35C543.996 841.782 544.14 842.118 544.428 842.358C544.732 842.582 545.116 842.758 545.58 842.886C546.06 843.014 546.588 843.126 547.164 843.222C547.74 843.302 548.316 843.414 548.892 843.558C549.468 843.686 549.988 843.87 550.452 844.11C550.932 844.35 551.316 844.686 551.604 845.118C551.908 845.55 552.06 846.126 552.06 846.846C552.06 847.614 551.836 848.278 551.388 848.838C550.94 849.398 550.308 849.838 549.492 850.158C548.676 850.462 547.7 850.614 546.564 850.614ZM558.587 850.614C557.531 850.614 556.523 850.47 555.563 850.182C554.619 849.894 553.875 849.542 553.331 849.126L554.291 847.302C554.835 847.67 555.507 847.982 556.307 848.238C557.107 848.494 557.923 848.622 558.755 848.622C559.827 848.622 560.595 848.47 561.059 848.166C561.539 847.862 561.779 847.438 561.779 846.894C561.779 846.494 561.635 846.182 561.347 845.958C561.059 845.734 560.675 845.566 560.195 845.454C559.731 845.342 559.211 845.246 558.635 845.166C558.059 845.07 557.483 844.958 556.907 844.83C556.331 844.686 555.803 844.494 555.323 844.254C554.843 843.998 554.459 843.654 554.171 843.222C553.883 842.774 553.739 842.182 553.739 841.446C553.739 840.678 553.955 840.006 554.387 839.43C554.819 838.854 555.427 838.414 556.211 838.11C557.011 837.79 557.955 837.63 559.043 837.63C559.875 837.63 560.715 837.734 561.563 837.942C562.427 838.134 563.131 838.414 563.675 838.782L562.691 840.606C562.115 840.222 561.515 839.958 560.891 839.814C560.267 839.67 559.643 839.598 559.019 839.598C558.011 839.598 557.259 839.766 556.763 840.102C556.267 840.422 556.019 840.838 556.019 841.35C556.019 841.782 556.163 842.118 556.451 842.358C556.755 842.582 557.139 842.758 557.603 842.886C558.083 843.014 558.611 843.126 559.187 843.222C559.763 843.302 560.339 843.414 560.915 843.558C561.491 843.686 562.011 843.87 562.475 844.11C562.955 844.35 563.339 844.686 563.627 845.118C563.931 845.55 564.083 846.126 564.083 846.846C564.083 847.614 563.859 848.278 563.411 848.838C562.963 849.398 562.331 849.838 561.515 850.158C560.699 850.462 559.723 850.614 558.587 850.614ZM569.416 850.47L564.688 837.75H566.872L571.072 849.27H570.04L574.408 837.75H576.352L580.624 849.27H579.616L583.912 837.75H585.976L581.224 850.47H579.016L575.008 839.958H575.68L571.624 850.47H569.416ZM593.411 850.614C592.131 850.614 590.995 850.334 590.003 849.774C589.011 849.214 588.227 848.446 587.651 847.47C587.075 846.478 586.787 845.358 586.787 844.11C586.787 842.846 587.075 841.726 587.651 840.75C588.227 839.774 589.011 839.014 590.003 838.47C590.995 837.91 592.131 837.63 593.411 837.63C594.675 837.63 595.803 837.91 596.795 838.47C597.803 839.014 598.587 839.774 599.147 840.75C599.723 841.71 600.011 842.83 600.011 844.11C600.011 845.374 599.723 846.494 599.147 847.47C598.587 848.446 597.803 849.214 596.795 849.774C595.803 850.334 594.675 850.614 593.411 850.614ZM593.411 848.598C594.227 848.598 594.955 848.414 595.595 848.046C596.251 847.678 596.763 847.158 597.131 846.486C597.499 845.798 597.683 845.006 597.683 844.11C597.683 843.198 597.499 842.414 597.131 841.758C596.763 841.086 596.251 840.566 595.595 840.198C594.955 839.83 594.227 839.646 593.411 839.646C592.595 839.646 591.867 839.83 591.227 840.198C590.587 840.566 590.075 841.086 589.691 841.758C589.307 842.414 589.115 843.198 589.115 844.11C589.115 845.006 589.307 845.798 589.691 846.486C590.075 847.158 590.587 847.678 591.227 848.046C591.867 848.414 592.595 848.598 593.411 848.598ZM603.197 850.47V837.75H605.405V841.206L605.189 840.342C605.541 839.462 606.133 838.79 606.965 838.326C607.797 837.862 608.821 837.63 610.037 837.63V839.862C609.941 839.846 609.845 839.838 609.749 839.838C609.669 839.838 609.589 839.838 609.509 839.838C608.277 839.838 607.301 840.206 606.581 840.942C605.861 841.678 605.501 842.742 605.501 844.134V850.47H603.197ZM618.015 850.614C616.783 850.614 615.679 850.342 614.703 849.798C613.743 849.254 612.983 848.494 612.423 847.518C611.863 846.542 611.583 845.406 611.583 844.11C611.583 842.814 611.863 841.686 612.423 840.726C612.983 839.75 613.743 838.99 614.703 838.446C615.679 837.902 616.783 837.63 618.015 837.63C619.087 837.63 620.055 837.87 620.919 838.35C621.783 838.83 622.471 839.55 622.983 840.51C623.511 841.47 623.775 842.67 623.775 844.11C623.775 845.55 623.519 846.75 623.007 847.71C622.511 848.67 621.831 849.398 620.967 849.894C620.103 850.374 619.119 850.614 618.015 850.614ZM618.207 848.598C619.007 848.598 619.727 848.414 620.367 848.046C621.023 847.678 621.535 847.158 621.903 846.486C622.287 845.798 622.479 845.006 622.479 844.11C622.479 843.198 622.287 842.414 621.903 841.758C621.535 841.086 621.023 840.566 620.367 840.198C619.727 839.83 619.007 839.646 618.207 839.646C617.391 839.646 616.663 839.83 616.023 840.198C615.383 840.566 614.871 841.086 614.487 841.758C614.103 842.414 613.911 843.198 613.911 844.11C613.911 845.006 614.103 845.798 614.487 846.486C614.871 847.158 615.383 847.678 616.023 848.046C616.663 848.414 617.391 848.598 618.207 848.598ZM622.551 850.47V847.038L622.695 844.086L622.455 841.134V832.662H624.759V850.47H622.551Z" fill="#202020" fill-opacity="0.25"/>
<path d="M918.921 850.47V833.67H925.473C926.945 833.67 928.201 833.902 929.241 834.366C930.281 834.83 931.081 835.502 931.641 836.382C932.201 837.262 932.481 838.31 932.481 839.526C932.481 840.742 932.201 841.79 931.641 842.67C931.081 843.534 930.281 844.198 929.241 844.662C928.201 845.126 926.945 845.358 925.473 845.358H920.241L921.321 844.254V850.47H918.921ZM930.153 850.47L925.881 844.374H928.449L932.769 850.47H930.153ZM921.321 844.494L920.241 843.318H925.401C926.937 843.318 928.097 842.99 928.881 842.334C929.681 841.662 930.081 840.726 930.081 839.526C930.081 838.326 929.681 837.398 928.881 836.742C928.097 836.086 926.937 835.758 925.401 835.758H920.241L921.321 834.558V844.494ZM941.687 850.614C940.327 850.614 939.127 850.334 938.087 849.774C937.063 849.214 936.263 848.446 935.687 847.47C935.127 846.494 934.847 845.374 934.847 844.11C934.847 842.846 935.119 841.726 935.663 840.75C936.223 839.774 936.983 839.014 937.943 838.47C938.919 837.91 940.015 837.63 941.231 837.63C942.463 837.63 943.551 837.902 944.495 838.446C945.439 838.99 946.175 839.758 946.703 840.75C947.247 841.726 947.519 842.87 947.519 844.182C947.519 844.278 947.511 844.39 947.495 844.518C947.495 844.646 947.487 844.766 947.471 844.878H936.647V843.222H946.271L945.335 843.798C945.351 842.982 945.183 842.254 944.831 841.614C944.479 840.974 943.991 840.478 943.367 840.126C942.759 839.758 942.047 839.574 941.231 839.574C940.431 839.574 939.719 839.758 939.095 840.126C938.471 840.478 937.983 840.982 937.631 841.638C937.279 842.278 937.103 843.014 937.103 843.846V844.23C937.103 845.078 937.295 845.838 937.679 846.51C938.079 847.166 938.631 847.678 939.335 848.046C940.039 848.414 940.847 848.598 941.759 848.598C942.511 848.598 943.191 848.47 943.799 848.214C944.423 847.958 944.967 847.574 945.431 847.062L946.703 848.55C946.127 849.222 945.407 849.734 944.543 850.086C943.695 850.438 942.743 850.614 941.687 850.614ZM956.286 855.27C955.118 855.27 953.982 855.102 952.878 854.766C951.79 854.446 950.902 853.982 950.214 853.374L951.318 851.598C951.91 852.11 952.638 852.51 953.502 852.798C954.366 853.102 955.27 853.254 956.214 853.254C957.718 853.254 958.822 852.902 959.526 852.198C960.23 851.494 960.582 850.422 960.582 848.982V846.294L960.822 843.774L960.702 841.23V837.75H962.886V848.742C962.886 850.982 962.326 852.63 961.206 853.686C960.086 854.742 958.446 855.27 956.286 855.27ZM955.998 849.942C954.766 849.942 953.662 849.686 952.686 849.174C951.726 848.646 950.958 847.918 950.382 846.99C949.822 846.062 949.542 844.99 949.542 843.774C949.542 842.542 949.822 841.47 950.382 840.558C950.958 839.63 951.726 838.91 952.686 838.398C953.662 837.886 954.766 837.63 955.998 837.63C957.086 837.63 958.078 837.854 958.974 838.302C959.87 838.734 960.582 839.406 961.11 840.318C961.654 841.23 961.926 842.382 961.926 843.774C961.926 845.15 961.654 846.294 961.11 847.206C960.582 848.118 959.87 848.806 958.974 849.27C958.078 849.718 957.086 849.942 955.998 849.942ZM956.262 847.926C957.11 847.926 957.862 847.75 958.518 847.398C959.174 847.046 959.686 846.558 960.054 845.934C960.438 845.31 960.63 844.59 960.63 843.774C960.63 842.958 960.438 842.238 960.054 841.614C959.686 840.99 959.174 840.51 958.518 840.174C957.862 839.822 957.11 839.646 956.262 839.646C955.414 839.646 954.654 839.822 953.982 840.174C953.326 840.51 952.806 840.99 952.422 841.614C952.054 842.238 951.87 842.958 951.87 843.774C951.87 844.59 952.054 845.31 952.422 845.934C952.806 846.558 953.326 847.046 953.982 847.398C954.654 847.75 955.414 847.926 956.262 847.926ZM967.288 850.47V837.75H969.592V850.47H967.288ZM968.44 835.302C967.992 835.302 967.616 835.158 967.312 834.87C967.024 834.582 966.88 834.23 966.88 833.814C966.88 833.382 967.024 833.022 967.312 832.734C967.616 832.446 967.992 832.302 968.44 832.302C968.888 832.302 969.256 832.446 969.544 832.734C969.848 833.006 970 833.35 970 833.766C970 834.198 969.856 834.566 969.568 834.87C969.28 835.158 968.904 835.302 968.44 835.302ZM977.639 850.614C976.583 850.614 975.575 850.47 974.615 850.182C973.671 849.894 972.927 849.542 972.383 849.126L973.343 847.302C973.887 847.67 974.559 847.982 975.359 848.238C976.159 848.494 976.975 848.622 977.807 848.622C978.879 848.622 979.647 848.47 980.111 848.166C980.591 847.862 980.831 847.438 980.831 846.894C980.831 846.494 980.687 846.182 980.399 845.958C980.111 845.734 979.727 845.566 979.247 845.454C978.783 845.342 978.263 845.246 977.687 845.166C977.111 845.07 976.535 844.958 975.959 844.83C975.383 844.686 974.855 844.494 974.375 844.254C973.895 843.998 973.511 843.654 973.223 843.222C972.935 842.774 972.791 842.182 972.791 841.446C972.791 840.678 973.007 840.006 973.439 839.43C973.871 838.854 974.479 838.414 975.263 838.11C976.063 837.79 977.007 837.63 978.095 837.63C978.927 837.63 979.767 837.734 980.615 837.942C981.479 838.134 982.183 838.414 982.727 838.782L981.743 840.606C981.167 840.222 980.567 839.958 979.943 839.814C979.319 839.67 978.695 839.598 978.071 839.598C977.063 839.598 976.311 839.766 975.815 840.102C975.319 840.422 975.071 840.838 975.071 841.35C975.071 841.782 975.215 842.118 975.503 842.358C975.807 842.582 976.191 842.758 976.655 842.886C977.135 843.014 977.663 843.126 978.239 843.222C978.815 843.302 979.391 843.414 979.967 843.558C980.543 843.686 981.063 843.87 981.527 844.11C982.007 844.35 982.391 844.686 982.679 845.118C982.983 845.55 983.135 846.126 983.135 846.846C983.135 847.614 982.911 848.278 982.463 848.838C982.015 849.398 981.383 849.838 980.567 850.158C979.751 850.462 978.775 850.614 977.639 850.614ZM990.383 850.614C989.103 850.614 988.111 850.27 987.407 849.582C986.703 848.894 986.351 847.91 986.351 846.63V834.966H988.655V846.534C988.655 847.222 988.823 847.75 989.159 848.118C989.511 848.486 990.007 848.67 990.647 848.67C991.367 848.67 991.967 848.47 992.447 848.07L993.167 849.726C992.815 850.03 992.391 850.254 991.895 850.398C991.415 850.542 990.911 850.614 990.383 850.614ZM984.191 839.646V837.75H992.303V839.646H984.191ZM1001.19 850.614C999.834 850.614 998.634 850.334 997.594 849.774C996.57 849.214 995.77 848.446 995.194 847.47C994.634 846.494 994.354 845.374 994.354 844.11C994.354 842.846 994.626 841.726 995.17 840.75C995.73 839.774 996.49 839.014 997.45 838.47C998.426 837.91 999.522 837.63 1000.74 837.63C1001.97 837.63 1003.06 837.902 1004 838.446C1004.95 838.99 1005.68 839.758 1006.21 840.75C1006.75 841.726 1007.03 842.87 1007.03 844.182C1007.03 844.278 1007.02 844.39 1007 844.518C1007 844.646 1006.99 844.766 1006.98 844.878H996.154V843.222H1005.78L1004.84 843.798C1004.86 842.982 1004.69 842.254 1004.34 841.614C1003.99 840.974 1003.5 840.478 1002.87 840.126C1002.27 839.758 1001.55 839.574 1000.74 839.574C999.938 839.574 999.226 839.758 998.602 840.126C997.978 840.478 997.49 840.982 997.138 841.638C996.786 842.278 996.61 843.014 996.61 843.846V844.23C996.61 845.078 996.802 845.838 997.186 846.51C997.586 847.166 998.138 847.678 998.842 848.046C999.546 848.414 1000.35 848.598 1001.27 848.598C1002.02 848.598 1002.7 848.47 1003.31 848.214C1003.93 847.958 1004.47 847.574 1004.94 847.062L1006.21 848.55C1005.63 849.222 1004.91 849.734 1004.05 850.086C1003.2 850.438 1002.25 850.614 1001.19 850.614ZM1010.23 850.47V837.75H1012.43V841.206L1012.22 840.342C1012.57 839.462 1013.16 838.79 1013.99 838.326C1014.83 837.862 1015.85 837.63 1017.07 837.63V839.862C1016.97 839.846 1016.87 839.838 1016.78 839.838C1016.7 839.838 1016.62 839.838 1016.54 839.838C1015.31 839.838 1014.33 840.206 1013.61 840.942C1012.89 841.678 1012.53 842.742 1012.53 844.134V850.47H1010.23Z" fill="#202020" fill-opacity="0.25"/>
<defs>
<filter id="filter0_d_1_2" x="268.593" y="183.455" width="902.813" height="717.921" filterUnits="userSpaceOnUse" color-interpolation-filters="sRGB">
<feFlood flood-opacity="0" result="BackgroundImageFix"/>
<feColorMatrix in="SourceAlpha" type="matrix" values="0 0 0 0 0 0 0 0 0 0 0 0 0 0 0 0 0 0 127 0" result="hardAlpha"/>
<feMorphology radius="1" operator="dilate" in="SourceAlpha" result="effect1_dropShadow_1_2"/>
<feOffset/>
<feGaussianBlur stdDeviation="10"/>
<feComposite in2="hardAlpha" operator="out"/>
<feColorMatrix type="matrix" values="0 0 0 0 0 0 0 0 0 0 0 0 0 0 0 0 0 0 0.25 0"/>
<feBlend mode="normal" in2="BackgroundImageFix" result="effect1_dropShadow_1_2"/>
<feBlend mode="normal" in="SourceGraphic" in2="effect1_dropShadow_1_2" result="shape"/>
</filter>
</defs>
</svg>
