<svg width="1440" height="1024" viewBox="0 0 1440 1024" fill="none" xmlns="http://www.w3.org/2000/svg">
<rect width="1440" height="1024" fill="white"/>
<g filter="url(#filter0_d_1_44)">
<rect x="289.593" y="66.8757" width="860.813" height="813.501" fill="white"/>
</g>
<rect x="360.379" y="721.756" width="719.243" height="80.8394" stroke="#202020" stroke-width="4"/>
<path d="M634.18 770.676V753.876H641.86C643.396 753.876 644.716 754.124 645.82 754.62C646.94 755.116 647.804 755.836 648.412 756.78C649.02 757.708 649.324 758.812 649.324 760.092C649.324 761.356 649.02 762.452 648.412 763.38C647.804 764.292 646.94 764.996 645.82 765.492C644.716 765.972 643.396 766.212 641.86 766.212H636.82L638.932 764.22V770.676H634.18ZM644.572 770.676L640.396 764.556H645.46L649.66 770.676H644.572ZM638.932 764.724L636.82 762.54H641.572C642.564 762.54 643.3 762.324 643.78 761.892C644.276 761.46 644.524 760.86 644.524 760.092C644.524 759.308 644.276 758.7 643.78 758.268C643.3 757.836 642.564 757.62 641.572 757.62H636.82L638.932 755.436V764.724ZM663.298 760.38H671.098V763.932H663.298V760.38ZM663.634 767.004H672.418V770.676H658.93V753.876H672.106V757.548H663.634V767.004ZM690.439 771.012C689.111 771.012 687.879 770.804 686.743 770.388C685.607 769.956 684.623 769.348 683.791 768.564C682.975 767.78 682.335 766.86 681.871 765.804C681.407 764.732 681.175 763.556 681.175 762.276C681.175 760.996 681.407 759.828 681.871 758.772C682.335 757.7 682.983 756.772 683.815 755.988C684.647 755.204 685.631 754.604 686.767 754.188C687.919 753.756 689.175 753.54 690.535 753.54C692.119 753.54 693.535 753.804 694.783 754.332C696.031 754.86 697.063 755.62 697.879 756.612L694.855 759.348C694.279 758.724 693.655 758.26 692.983 757.956C692.327 757.636 691.591 757.476 690.775 757.476C690.055 757.476 689.399 757.588 688.807 757.812C688.215 758.036 687.711 758.364 687.295 758.796C686.879 759.212 686.551 759.716 686.311 760.308C686.087 760.884 685.975 761.54 685.975 762.276C685.975 762.98 686.087 763.628 686.311 764.22C686.551 764.812 686.879 765.324 687.295 765.756C687.711 766.172 688.207 766.5 688.783 766.74C689.375 766.964 690.023 767.076 690.727 767.076C691.431 767.076 692.119 766.964 692.791 766.74C693.463 766.5 694.143 766.1 694.831 765.54L697.495 768.876C696.535 769.564 695.423 770.092 694.159 770.46C692.895 770.828 691.655 771.012 690.439 771.012ZM693.295 768.252V761.916H697.495V768.876L693.295 768.252ZM707.493 770.676V753.876H712.245V770.676H707.493ZM728.514 771.012C727.138 771.012 725.81 770.844 724.53 770.508C723.266 770.156 722.234 769.708 721.434 769.164L722.994 765.66C723.746 766.14 724.61 766.54 725.586 766.86C726.578 767.164 727.562 767.316 728.538 767.316C729.194 767.316 729.722 767.26 730.122 767.148C730.522 767.02 730.81 766.86 730.986 766.668C731.178 766.46 731.274 766.22 731.274 765.948C731.274 765.564 731.098 765.26 730.746 765.036C730.394 764.812 729.938 764.628 729.378 764.484C728.818 764.34 728.194 764.196 727.506 764.052C726.834 763.908 726.154 763.724 725.466 763.5C724.794 763.276 724.178 762.988 723.618 762.636C723.058 762.268 722.602 761.796 722.25 761.22C721.898 760.628 721.722 759.884 721.722 758.988C721.722 757.98 721.994 757.068 722.538 756.252C723.098 755.436 723.93 754.78 725.034 754.284C726.138 753.788 727.514 753.54 729.162 753.54C730.266 753.54 731.346 753.668 732.402 753.924C733.474 754.164 734.426 754.524 735.258 755.004L733.794 758.532C732.994 758.1 732.202 757.78 731.418 757.572C730.634 757.348 729.874 757.236 729.138 757.236C728.482 757.236 727.954 757.308 727.554 757.452C727.154 757.58 726.866 757.756 726.69 757.98C726.514 758.204 726.426 758.46 726.426 758.748C726.426 759.116 726.594 759.412 726.93 759.636C727.282 759.844 727.738 760.02 728.298 760.164C728.874 760.292 729.498 760.428 730.17 760.572C730.858 760.716 731.538 760.9 732.21 761.124C732.898 761.332 733.522 761.62 734.082 761.988C734.642 762.34 735.09 762.812 735.426 763.404C735.778 763.98 735.954 764.708 735.954 765.588C735.954 766.564 735.674 767.468 735.114 768.3C734.57 769.116 733.746 769.772 732.642 770.268C731.554 770.764 730.178 771.012 728.514 771.012ZM748.709 770.676V757.644H743.549V753.876H758.597V757.644H753.461V770.676H748.709ZM771.72 760.38H779.52V763.932H771.72V760.38ZM772.056 767.004H780.84V770.676H767.352V753.876H780.528V757.548H772.056V767.004ZM790.461 770.676V753.876H798.141C799.677 753.876 800.997 754.124 802.101 754.62C803.221 755.116 804.085 755.836 804.693 756.78C805.301 757.708 805.605 758.812 805.605 760.092C805.605 761.356 805.301 762.452 804.693 763.38C804.085 764.292 803.221 764.996 802.101 765.492C800.997 765.972 799.677 766.212 798.141 766.212H793.101L795.213 764.22V770.676H790.461ZM800.853 770.676L796.677 764.556H801.741L805.941 770.676H800.853ZM795.213 764.724L793.101 762.54H797.853C798.845 762.54 799.581 762.324 800.061 761.892C800.557 761.46 800.805 760.86 800.805 760.092C800.805 759.308 800.557 758.7 800.061 758.268C799.581 757.836 798.845 757.62 797.853 757.62H793.101L795.213 755.436V764.724Z" fill="#202020"/>
<path d="M588.016 208.925V164.125H606.448C610.416 164.125 613.808 164.765 616.624 166.045C619.483 167.325 621.68 169.159 623.216 171.549C624.752 173.938 625.52 176.775 625.52 180.061C625.52 183.346 624.752 186.183 623.216 188.573C621.68 190.919 619.483 192.733 616.624 194.013C613.808 195.25 610.416 195.869 606.448 195.869H592.624L596.336 192.093V208.925H588.016ZM617.328 208.925L606 192.669H614.896L626.288 208.925H617.328ZM596.336 192.989L592.624 189.021H606.064C609.733 189.021 612.485 188.231 614.32 186.653C616.197 185.074 617.136 182.877 617.136 180.061C617.136 177.202 616.197 175.005 614.32 173.469C612.485 171.933 609.733 171.165 606.064 171.165H592.624L596.336 167.069V192.989ZM650.125 209.373C646.327 209.373 642.999 208.626 640.141 207.133C637.325 205.597 635.127 203.506 633.549 200.861C632.013 198.215 631.245 195.207 631.245 191.837C631.245 188.423 631.991 185.415 633.485 182.813C635.021 180.167 637.111 178.098 639.757 176.605C642.445 175.111 645.495 174.365 648.909 174.365C652.237 174.365 655.202 175.09 657.805 176.541C660.407 177.991 662.455 180.039 663.949 182.685C665.442 185.33 666.189 188.445 666.189 192.029C666.189 192.37 666.167 192.754 666.125 193.181C666.125 193.607 666.103 194.013 666.061 194.397H637.581V189.085H661.837L658.701 190.749C658.743 188.786 658.338 187.058 657.485 185.565C656.631 184.071 655.458 182.898 653.965 182.045C652.514 181.191 650.829 180.765 648.909 180.765C646.946 180.765 645.218 181.191 643.725 182.045C642.274 182.898 641.122 184.093 640.269 185.629C639.458 187.122 639.053 188.893 639.053 190.941V192.221C639.053 194.269 639.522 196.082 640.461 197.661C641.399 199.239 642.722 200.455 644.429 201.309C646.135 202.162 648.098 202.589 650.317 202.589C652.237 202.589 653.965 202.29 655.501 201.693C657.037 201.095 658.402 200.157 659.597 198.877L663.885 203.805C662.349 205.597 660.407 206.983 658.061 207.965C655.757 208.903 653.111 209.373 650.125 209.373ZM689.361 221.789C686.204 221.789 683.11 221.362 680.081 220.509C677.094 219.698 674.641 218.503 672.721 216.925L676.305 210.909C677.798 212.146 679.676 213.127 681.937 213.853C684.241 214.621 686.566 215.005 688.913 215.005C692.668 215.005 695.42 214.13 697.169 212.381C698.918 210.674 699.793 208.093 699.793 204.637V198.557L700.433 190.813L700.177 183.069V174.749H707.793V203.741C707.793 209.927 706.214 214.471 703.057 217.373C699.9 220.317 695.334 221.789 689.361 221.789ZM688.337 207.389C685.094 207.389 682.15 206.706 679.505 205.341C676.902 203.933 674.833 201.991 673.297 199.517C671.804 197.042 671.057 194.141 671.057 190.813C671.057 187.527 671.804 184.647 673.297 182.173C674.833 179.698 676.902 177.778 679.505 176.413C682.15 175.047 685.094 174.365 688.337 174.365C691.238 174.365 693.841 174.941 696.145 176.093C698.449 177.245 700.284 179.037 701.649 181.469C703.057 183.901 703.761 187.015 703.761 190.813C703.761 194.61 703.057 197.746 701.649 200.221C700.284 202.653 698.449 204.466 696.145 205.661C693.841 206.813 691.238 207.389 688.337 207.389ZM689.553 200.605C691.558 200.605 693.35 200.199 694.929 199.389C696.508 198.535 697.724 197.383 698.577 195.933C699.473 194.439 699.921 192.733 699.921 190.813C699.921 188.893 699.473 187.207 698.577 185.757C697.724 184.263 696.508 183.133 694.929 182.365C693.35 181.554 691.558 181.149 689.553 181.149C687.548 181.149 685.734 181.554 684.113 182.365C682.534 183.133 681.297 184.263 680.401 185.757C679.548 187.207 679.121 188.893 679.121 190.813C679.121 192.733 679.548 194.439 680.401 195.933C681.297 197.383 682.534 198.535 684.113 199.389C685.734 200.199 687.548 200.605 689.553 200.605ZM718.311 208.925V174.749H726.311V208.925H718.311ZM722.343 169.117C720.849 169.117 719.612 168.647 718.631 167.709C717.692 166.77 717.223 165.639 717.223 164.317C717.223 162.951 717.692 161.821 718.631 160.925C719.612 159.986 720.849 159.517 722.343 159.517C723.836 159.517 725.052 159.965 725.991 160.861C726.972 161.714 727.463 162.802 727.463 164.125C727.463 165.533 726.993 166.727 726.055 167.709C725.116 168.647 723.879 169.117 722.343 169.117ZM747.371 209.373C744.512 209.373 741.76 209.01 739.115 208.285C736.512 207.517 734.443 206.599 732.907 205.533L735.979 199.453C737.515 200.434 739.349 201.245 741.483 201.885C743.616 202.525 745.749 202.845 747.883 202.845C750.4 202.845 752.213 202.503 753.323 201.821C754.475 201.138 755.051 200.221 755.051 199.069C755.051 198.13 754.667 197.426 753.899 196.957C753.131 196.445 752.128 196.061 750.891 195.805C749.653 195.549 748.267 195.314 746.731 195.101C745.237 194.887 743.723 194.61 742.187 194.269C740.693 193.885 739.328 193.351 738.091 192.669C736.853 191.943 735.851 190.983 735.083 189.789C734.315 188.594 733.931 187.015 733.931 185.053C733.931 182.877 734.549 180.999 735.786 179.421C737.024 177.799 738.752 176.562 740.97 175.709C743.232 174.813 745.899 174.365 748.971 174.365C751.275 174.365 753.6 174.621 755.947 175.133C758.293 175.645 760.235 176.37 761.771 177.309L758.699 183.389C757.077 182.407 755.435 181.746 753.771 181.405C752.149 181.021 750.528 180.829 748.907 180.829C746.475 180.829 744.661 181.191 743.467 181.917C742.315 182.642 741.739 183.559 741.739 184.669C741.739 185.693 742.123 186.461 742.891 186.973C743.659 187.485 744.661 187.89 745.899 188.189C747.136 188.487 748.501 188.743 749.995 188.957C751.531 189.127 753.045 189.405 754.539 189.789C756.032 190.173 757.397 190.706 758.635 191.389C759.915 192.029 760.939 192.946 761.707 194.141C762.475 195.335 762.859 196.893 762.859 198.813C762.859 200.946 762.219 202.802 760.939 204.381C759.701 205.959 757.931 207.197 755.627 208.093C753.323 208.946 750.571 209.373 747.371 209.373ZM782.612 209.373C778.857 209.373 775.956 208.413 773.908 206.493C771.86 204.53 770.836 201.65 770.836 197.853V167.197H778.836V197.661C778.836 199.282 779.241 200.541 780.052 201.437C780.905 202.333 782.079 202.781 783.572 202.781C785.364 202.781 786.857 202.311 788.052 201.373L790.292 207.069C789.353 207.837 788.201 208.413 786.836 208.797C785.471 209.181 784.063 209.373 782.612 209.373ZM765.204 181.405V175.005H787.988V181.405H765.204ZM811.812 209.373C808.015 209.373 804.687 208.626 801.828 207.133C799.012 205.597 796.815 203.506 795.236 200.861C793.7 198.215 792.932 195.207 792.932 191.837C792.932 188.423 793.679 185.415 795.172 182.813C796.708 180.167 798.799 178.098 801.444 176.605C804.132 175.111 807.183 174.365 810.596 174.365C813.924 174.365 816.889 175.09 819.492 176.541C822.095 177.991 824.143 180.039 825.636 182.685C827.129 185.33 827.876 188.445 827.876 192.029C827.876 192.37 827.855 192.754 827.812 193.181C827.812 193.607 827.791 194.013 827.748 194.397H799.268V189.085H823.524L820.388 190.749C820.431 188.786 820.025 187.058 819.172 185.565C818.319 184.071 817.145 182.898 815.652 182.045C814.201 181.191 812.516 180.765 810.596 180.765C808.633 180.765 806.905 181.191 805.412 182.045C803.961 182.898 802.809 184.093 801.956 185.629C801.145 187.122 800.74 188.893 800.74 190.941V192.221C800.74 194.269 801.209 196.082 802.148 197.661C803.087 199.239 804.409 200.455 806.116 201.309C807.823 202.162 809.785 202.589 812.004 202.589C813.924 202.589 815.652 202.29 817.188 201.693C818.724 201.095 820.089 200.157 821.284 198.877L825.572 203.805C824.036 205.597 822.095 206.983 819.748 207.965C817.444 208.903 814.799 209.373 811.812 209.373ZM835.561 208.925V174.749H843.177V184.157L842.281 181.405C843.305 179.101 844.905 177.351 847.081 176.157C849.299 174.962 852.051 174.365 855.337 174.365V181.981C854.995 181.895 854.675 181.853 854.377 181.853C854.078 181.81 853.779 181.789 853.481 181.789C850.451 181.789 848.041 182.685 846.249 184.477C844.457 186.226 843.561 188.85 843.561 192.349V208.925H835.561Z" fill="#202020"/>
<rect x="360.379" y="296.862" width="719.243" height="80.8394" stroke="#202020" stroke-width="4"/>
<rect x="386.596" y="273.874" width="164.348" height="41.9758" fill="white"/>
<path d="M435.474 293.81H444.114V295.85H435.474V293.81ZM435.69 301.274H445.482V303.362H433.29V286.562H445.146V288.65H435.69V301.274ZM447.748 297.77V295.778H454.204V297.77H447.748ZM458.087 303.362V286.562H460.055L467.591 299.258H466.535L473.975 286.562H475.943L475.967 303.362H473.663L473.639 290.186H474.191L467.567 301.322H466.463L459.791 290.186H460.391V303.362H458.087ZM488.569 303.362V300.674L488.449 300.17V295.586C488.449 294.61 488.161 293.858 487.585 293.33C487.025 292.786 486.177 292.514 485.041 292.514C484.289 292.514 483.553 292.642 482.833 292.898C482.113 293.138 481.505 293.466 481.009 293.882L480.049 292.154C480.705 291.626 481.489 291.226 482.401 290.954C483.329 290.666 484.297 290.522 485.305 290.522C487.049 290.522 488.393 290.946 489.337 291.794C490.281 292.642 490.753 293.938 490.753 295.682V303.362H488.569ZM484.393 303.506C483.449 303.506 482.617 303.346 481.897 303.026C481.193 302.706 480.649 302.266 480.265 301.706C479.881 301.13 479.689 300.482 479.689 299.762C479.689 299.074 479.849 298.45 480.169 297.89C480.505 297.33 481.041 296.882 481.777 296.546C482.529 296.21 483.537 296.042 484.801 296.042H488.833V297.698H484.897C483.745 297.698 482.969 297.89 482.569 298.274C482.169 298.658 481.969 299.122 481.969 299.666C481.969 300.29 482.217 300.794 482.713 301.178C483.209 301.546 483.897 301.73 484.777 301.73C485.641 301.73 486.393 301.538 487.033 301.154C487.689 300.77 488.161 300.21 488.449 299.474L488.905 301.058C488.601 301.81 488.065 302.41 487.297 302.858C486.529 303.29 485.561 303.506 484.393 303.506ZM495.017 303.362V290.642H497.321V303.362H495.017ZM496.169 288.194C495.721 288.194 495.345 288.05 495.041 287.762C494.753 287.474 494.609 287.122 494.609 286.706C494.609 286.274 494.753 285.914 495.041 285.626C495.345 285.338 495.721 285.194 496.169 285.194C496.617 285.194 496.985 285.338 497.273 285.626C497.577 285.898 497.729 286.242 497.729 286.658C497.729 287.09 497.585 287.458 497.297 287.762C497.009 288.05 496.633 288.194 496.169 288.194ZM501.72 303.362V285.554H504.024V303.362H501.72Z" fill="black"/>
<rect x="360.379" y="429.161" width="719.243" height="80.8394" stroke="#202020" stroke-width="4"/>
<rect x="386.596" y="406.173" width="164.348" height="41.9758" fill="white"/>
<path d="M412.29 435.661V418.861H418.842C420.314 418.861 421.57 419.093 422.61 419.557C423.65 420.021 424.45 420.693 425.01 421.573C425.57 422.453 425.85 423.501 425.85 424.717C425.85 425.933 425.57 426.981 425.01 427.861C424.45 428.725 423.65 429.397 422.61 429.877C421.57 430.341 420.314 430.573 418.842 430.573H413.61L414.69 429.445V435.661H412.29ZM414.69 429.685L413.61 428.485H418.77C420.306 428.485 421.466 428.157 422.25 427.501C423.05 426.845 423.45 425.917 423.45 424.717C423.45 423.517 423.05 422.589 422.25 421.933C421.466 421.277 420.306 420.949 418.77 420.949H413.61L414.69 419.749V429.685ZM436.819 435.661V432.973L436.699 432.469V427.885C436.699 426.909 436.411 426.157 435.835 425.629C435.275 425.085 434.427 424.813 433.291 424.813C432.539 424.813 431.803 424.941 431.083 425.197C430.363 425.437 429.755 425.765 429.259 426.181L428.299 424.453C428.955 423.925 429.739 423.525 430.651 423.253C431.579 422.965 432.547 422.821 433.555 422.821C435.299 422.821 436.643 423.245 437.587 424.093C438.531 424.941 439.003 426.237 439.003 427.981V435.661H436.819ZM432.643 435.805C431.699 435.805 430.867 435.645 430.147 435.325C429.443 435.005 428.899 434.565 428.515 434.005C428.131 433.429 427.939 432.781 427.939 432.061C427.939 431.373 428.099 430.749 428.419 430.189C428.755 429.629 429.291 429.181 430.027 428.845C430.779 428.509 431.787 428.341 433.051 428.341H437.083V429.997H433.147C431.995 429.997 431.219 430.189 430.819 430.573C430.419 430.957 430.219 431.421 430.219 431.965C430.219 432.589 430.467 433.093 430.963 433.477C431.459 433.845 432.147 434.029 433.027 434.029C433.891 434.029 434.643 433.837 435.283 433.453C435.939 433.069 436.411 432.509 436.699 431.773L437.155 433.357C436.851 434.109 436.315 434.709 435.547 435.157C434.779 435.589 433.811 435.805 432.643 435.805ZM446.915 435.805C445.859 435.805 444.851 435.661 443.891 435.373C442.947 435.085 442.203 434.733 441.659 434.317L442.619 432.493C443.163 432.861 443.835 433.173 444.635 433.429C445.435 433.685 446.251 433.813 447.083 433.813C448.155 433.813 448.923 433.661 449.387 433.357C449.867 433.053 450.107 432.629 450.107 432.085C450.107 431.685 449.963 431.373 449.675 431.149C449.387 430.925 449.003 430.757 448.523 430.645C448.059 430.533 447.539 430.437 446.963 430.357C446.387 430.261 445.811 430.149 445.235 430.021C444.659 429.877 444.131 429.685 443.651 429.445C443.171 429.189 442.787 428.845 442.499 428.413C442.211 427.965 442.067 427.373 442.067 426.637C442.067 425.869 442.283 425.197 442.715 424.621C443.147 424.045 443.755 423.605 444.539 423.301C445.339 422.981 446.283 422.821 447.371 422.821C448.203 422.821 449.043 422.925 449.891 423.133C450.755 423.325 451.459 423.605 452.003 423.973L451.019 425.797C450.443 425.413 449.843 425.149 449.219 425.005C448.595 424.861 447.971 424.789 447.347 424.789C446.339 424.789 445.587 424.957 445.091 425.293C444.595 425.613 444.347 426.029 444.347 426.541C444.347 426.973 444.491 427.309 444.779 427.549C445.083 427.773 445.467 427.949 445.931 428.077C446.411 428.205 446.939 428.317 447.515 428.413C448.091 428.493 448.667 428.605 449.243 428.749C449.819 428.877 450.339 429.061 450.803 429.301C451.283 429.541 451.667 429.877 451.955 430.309C452.259 430.741 452.411 431.317 452.411 432.037C452.411 432.805 452.187 433.469 451.739 434.029C451.291 434.589 450.659 435.029 449.843 435.349C449.027 435.653 448.051 435.805 446.915 435.805ZM458.938 435.805C457.882 435.805 456.874 435.661 455.914 435.373C454.97 435.085 454.226 434.733 453.682 434.317L454.642 432.493C455.186 432.861 455.858 433.173 456.658 433.429C457.458 433.685 458.274 433.813 459.106 433.813C460.178 433.813 460.946 433.661 461.41 433.357C461.89 433.053 462.13 432.629 462.13 432.085C462.13 431.685 461.986 431.373 461.698 431.149C461.41 430.925 461.026 430.757 460.546 430.645C460.082 430.533 459.562 430.437 458.986 430.357C458.41 430.261 457.834 430.149 457.258 430.021C456.682 429.877 456.154 429.685 455.674 429.445C455.194 429.189 454.81 428.845 454.522 428.413C454.234 427.965 454.09 427.373 454.09 426.637C454.09 425.869 454.306 425.197 454.738 424.621C455.17 424.045 455.778 423.605 456.562 423.301C457.362 422.981 458.306 422.821 459.394 422.821C460.226 422.821 461.066 422.925 461.914 423.133C462.778 423.325 463.482 423.605 464.026 423.973L463.042 425.797C462.466 425.413 461.866 425.149 461.242 425.005C460.618 424.861 459.994 424.789 459.37 424.789C458.362 424.789 457.61 424.957 457.114 425.293C456.618 425.613 456.37 426.029 456.37 426.541C456.37 426.973 456.514 427.309 456.802 427.549C457.106 427.773 457.49 427.949 457.954 428.077C458.434 428.205 458.962 428.317 459.538 428.413C460.114 428.493 460.69 428.605 461.266 428.749C461.842 428.877 462.362 429.061 462.826 429.301C463.306 429.541 463.69 429.877 463.978 430.309C464.282 430.741 464.434 431.317 464.434 432.037C464.434 432.805 464.21 433.469 463.762 434.029C463.314 434.589 462.682 435.029 461.866 435.349C461.05 435.653 460.074 435.805 458.938 435.805ZM469.767 435.661L465.039 422.941H467.223L471.423 434.461H470.391L474.759 422.941H476.703L480.975 434.461H479.967L484.263 422.941H486.327L481.575 435.661H479.367L475.359 425.149H476.031L471.975 435.661H469.767ZM493.762 435.805C492.482 435.805 491.346 435.525 490.354 434.965C489.362 434.405 488.578 433.637 488.002 432.661C487.426 431.669 487.138 430.549 487.138 429.301C487.138 428.037 487.426 426.917 488.002 425.941C488.578 424.965 489.362 424.205 490.354 423.661C491.346 423.101 492.482 422.821 493.762 422.821C495.026 422.821 496.154 423.101 497.146 423.661C498.154 424.205 498.938 424.965 499.498 425.941C500.074 426.901 500.362 428.021 500.362 429.301C500.362 430.565 500.074 431.685 499.498 432.661C498.938 433.637 498.154 434.405 497.146 434.965C496.154 435.525 495.026 435.805 493.762 435.805ZM493.762 433.789C494.578 433.789 495.306 433.605 495.946 433.237C496.602 432.869 497.114 432.349 497.482 431.677C497.85 430.989 498.034 430.197 498.034 429.301C498.034 428.389 497.85 427.605 497.482 426.949C497.114 426.277 496.602 425.757 495.946 425.389C495.306 425.021 494.578 424.837 493.762 424.837C492.946 424.837 492.218 425.021 491.578 425.389C490.938 425.757 490.426 426.277 490.042 426.949C489.658 427.605 489.466 428.389 489.466 429.301C489.466 430.197 489.658 430.989 490.042 431.677C490.426 432.349 490.938 432.869 491.578 433.237C492.218 433.605 492.946 433.789 493.762 433.789ZM503.548 435.661V422.941H505.756V426.397L505.54 425.533C505.892 424.653 506.484 423.981 507.316 423.517C508.148 423.053 509.172 422.821 510.388 422.821V425.053C510.292 425.037 510.196 425.029 510.1 425.029C510.02 425.029 509.94 425.029 509.86 425.029C508.628 425.029 507.652 425.397 506.932 426.133C506.212 426.869 505.852 427.933 505.852 429.325V435.661H503.548ZM518.366 435.805C517.134 435.805 516.03 435.533 515.054 434.989C514.094 434.445 513.334 433.685 512.774 432.709C512.214 431.733 511.934 430.597 511.934 429.301C511.934 428.005 512.214 426.877 512.774 425.917C513.334 424.941 514.094 424.181 515.054 423.637C516.03 423.093 517.134 422.821 518.366 422.821C519.438 422.821 520.406 423.061 521.27 423.541C522.134 424.021 522.822 424.741 523.334 425.701C523.862 426.661 524.126 427.861 524.126 429.301C524.126 430.741 523.87 431.941 523.358 432.901C522.862 433.861 522.182 434.589 521.318 435.085C520.454 435.565 519.47 435.805 518.366 435.805ZM518.558 433.789C519.358 433.789 520.078 433.605 520.718 433.237C521.374 432.869 521.886 432.349 522.254 431.677C522.638 430.989 522.83 430.197 522.83 429.301C522.83 428.389 522.638 427.605 522.254 426.949C521.886 426.277 521.374 425.757 520.718 425.389C520.078 425.021 519.358 424.837 518.558 424.837C517.742 424.837 517.014 425.021 516.374 425.389C515.734 425.757 515.222 426.277 514.838 426.949C514.454 427.605 514.262 428.389 514.262 429.301C514.262 430.197 514.454 430.989 514.838 431.677C515.222 432.349 515.734 432.869 516.374 433.237C517.014 433.605 517.742 433.789 518.558 433.789ZM522.902 435.661V432.229L523.046 429.277L522.806 426.325V417.853H525.11V435.661H522.902Z" fill="black"/>
<rect x="360.379" y="561.459" width="719.243" height="80.8394" stroke="#202020" stroke-width="4"/>
<rect x="386.596" y="538.471" width="257.503" height="41.9758" fill="white"/>
<path d="M413.88 568.151C412.6 568.151 411.416 567.943 410.328 567.527C409.256 567.095 408.32 566.495 407.52 565.727C406.736 564.943 406.12 564.031 405.672 562.991C405.224 561.951 405 560.807 405 559.559C405 558.311 405.224 557.167 405.672 556.127C406.12 555.087 406.744 554.183 407.544 553.415C408.344 552.631 409.28 552.031 410.352 551.615C411.44 551.183 412.624 550.967 413.904 550.967C415.2 550.967 416.392 551.191 417.48 551.639C418.584 552.071 419.52 552.719 420.288 553.583L418.728 555.095C418.088 554.423 417.368 553.927 416.568 553.607C415.768 553.271 414.912 553.103 414 553.103C413.056 553.103 412.176 553.263 411.36 553.583C410.56 553.903 409.864 554.351 409.272 554.927C408.68 555.503 408.216 556.191 407.88 556.991C407.56 557.775 407.4 558.631 407.4 559.559C407.4 560.487 407.56 561.351 407.88 562.151C408.216 562.935 408.68 563.615 409.272 564.191C409.864 564.767 410.56 565.215 411.36 565.535C412.176 565.855 413.056 566.015 414 566.015C414.912 566.015 415.768 565.855 416.568 565.535C417.368 565.199 418.088 564.687 418.728 563.999L420.288 565.511C419.52 566.375 418.584 567.031 417.48 567.479C416.392 567.927 415.192 568.151 413.88 568.151ZM428.284 568.103C427.004 568.103 425.868 567.823 424.876 567.263C423.884 566.703 423.1 565.935 422.524 564.959C421.948 563.967 421.66 562.847 421.66 561.599C421.66 560.335 421.948 559.215 422.524 558.239C423.1 557.263 423.884 556.503 424.876 555.959C425.868 555.399 427.004 555.119 428.284 555.119C429.548 555.119 430.676 555.399 431.668 555.959C432.676 556.503 433.46 557.263 434.02 558.239C434.596 559.199 434.884 560.319 434.884 561.599C434.884 562.863 434.596 563.983 434.02 564.959C433.46 565.935 432.676 566.703 431.668 567.263C430.676 567.823 429.548 568.103 428.284 568.103ZM428.284 566.087C429.1 566.087 429.828 565.903 430.468 565.535C431.124 565.167 431.636 564.647 432.004 563.975C432.372 563.287 432.556 562.495 432.556 561.599C432.556 560.687 432.372 559.903 432.004 559.247C431.636 558.575 431.124 558.055 430.468 557.687C429.828 557.319 429.1 557.135 428.284 557.135C427.468 557.135 426.74 557.319 426.1 557.687C425.46 558.055 424.948 558.575 424.564 559.247C424.18 559.903 423.988 560.687 423.988 561.599C423.988 562.495 424.18 563.287 424.564 563.975C424.948 564.647 425.46 565.167 426.1 565.535C426.74 565.903 427.468 566.087 428.284 566.087ZM444.863 555.119C445.903 555.119 446.815 555.319 447.599 555.719C448.399 556.119 449.023 556.727 449.471 557.543C449.919 558.359 450.143 559.391 450.143 560.639V567.959H447.839V560.903C447.839 559.671 447.535 558.743 446.927 558.119C446.335 557.495 445.495 557.183 444.407 557.183C443.591 557.183 442.879 557.343 442.271 557.663C441.663 557.983 441.191 558.455 440.855 559.079C440.535 559.703 440.375 560.479 440.375 561.407V567.959H438.071V555.239H440.279V558.671L439.919 557.759C440.335 556.927 440.975 556.279 441.839 555.815C442.703 555.351 443.711 555.119 444.863 555.119ZM454.743 567.959V554.111C454.743 552.863 455.103 551.871 455.823 551.135C456.559 550.383 457.599 550.007 458.943 550.007C459.439 550.007 459.911 550.071 460.359 550.199C460.823 550.311 461.215 550.495 461.535 550.751L460.839 552.503C460.599 552.311 460.327 552.167 460.023 552.071C459.719 551.959 459.399 551.903 459.063 551.903C458.391 551.903 457.879 552.095 457.527 552.479C457.175 552.847 456.999 553.399 456.999 554.135V555.839L457.047 556.895V567.959H454.743ZM452.583 557.135V555.239H460.695V557.135H452.583ZM462.879 567.959V555.239H465.183V567.959H462.879ZM464.031 552.791C463.583 552.791 463.207 552.647 462.903 552.359C462.615 552.071 462.471 551.719 462.471 551.303C462.471 550.871 462.615 550.511 462.903 550.223C463.207 549.935 463.583 549.791 464.031 549.791C464.479 549.791 464.847 549.935 465.135 550.223C465.439 550.495 465.591 550.839 465.591 551.255C465.591 551.687 465.447 552.055 465.159 552.359C464.871 552.647 464.495 552.791 464.031 552.791ZM469.571 567.959V555.239H471.779V558.695L471.563 557.831C471.915 556.951 472.507 556.279 473.339 555.815C474.171 555.351 475.195 555.119 476.411 555.119V557.351C476.315 557.335 476.219 557.327 476.123 557.327C476.043 557.327 475.963 557.327 475.883 557.327C474.651 557.327 473.675 557.695 472.955 558.431C472.235 559.167 471.875 560.231 471.875 561.623V567.959H469.571ZM495.162 555.119C496.186 555.119 497.09 555.319 497.874 555.719C498.658 556.119 499.266 556.727 499.698 557.543C500.146 558.359 500.37 559.391 500.37 560.639V567.959H498.066V560.903C498.066 559.671 497.778 558.743 497.202 558.119C496.626 557.495 495.818 557.183 494.778 557.183C494.01 557.183 493.338 557.343 492.762 557.663C492.186 557.983 491.738 558.455 491.418 559.079C491.114 559.703 490.962 560.479 490.962 561.407V567.959H488.658V560.903C488.658 559.671 488.37 558.743 487.794 558.119C487.234 557.495 486.426 557.183 485.37 557.183C484.618 557.183 483.954 557.343 483.378 557.663C482.802 557.983 482.354 558.455 482.034 559.079C481.714 559.703 481.554 560.479 481.554 561.407V567.959H479.25V555.239H481.458V558.623L481.098 557.759C481.498 556.927 482.114 556.279 482.946 555.815C483.778 555.351 484.746 555.119 485.85 555.119C487.066 555.119 488.114 555.423 488.994 556.031C489.874 556.623 490.45 557.527 490.722 558.743L489.786 558.359C490.17 557.383 490.842 556.599 491.802 556.007C492.762 555.415 493.882 555.119 495.162 555.119ZM511.391 567.959V551.159H517.943C519.415 551.159 520.671 551.391 521.711 551.855C522.751 552.319 523.551 552.991 524.111 553.871C524.671 554.751 524.951 555.799 524.951 557.015C524.951 558.231 524.671 559.279 524.111 560.159C523.551 561.023 522.751 561.695 521.711 562.175C520.671 562.639 519.415 562.871 517.943 562.871H512.711L513.791 561.743V567.959H511.391ZM513.791 561.983L512.711 560.783H517.871C519.407 560.783 520.567 560.455 521.351 559.799C522.151 559.143 522.551 558.215 522.551 557.015C522.551 555.815 522.151 554.887 521.351 554.231C520.567 553.575 519.407 553.247 517.871 553.247H512.711L513.791 552.047V561.983ZM535.92 567.959V565.271L535.8 564.767V560.183C535.8 559.207 535.512 558.455 534.936 557.927C534.376 557.383 533.528 557.111 532.392 557.111C531.64 557.111 530.904 557.239 530.184 557.495C529.464 557.735 528.856 558.063 528.36 558.479L527.4 556.751C528.056 556.223 528.84 555.823 529.752 555.551C530.68 555.263 531.648 555.119 532.656 555.119C534.4 555.119 535.744 555.543 536.688 556.391C537.632 557.239 538.104 558.535 538.104 560.279V567.959H535.92ZM531.744 568.103C530.8 568.103 529.968 567.943 529.248 567.623C528.544 567.303 528 566.863 527.616 566.303C527.232 565.727 527.04 565.079 527.04 564.359C527.04 563.671 527.2 563.047 527.52 562.487C527.856 561.927 528.392 561.479 529.128 561.143C529.88 560.807 530.888 560.639 532.152 560.639H536.184V562.295H532.248C531.096 562.295 530.32 562.487 529.92 562.871C529.52 563.255 529.32 563.719 529.32 564.263C529.32 564.887 529.568 565.391 530.064 565.775C530.56 566.143 531.248 566.327 532.128 566.327C532.992 566.327 533.744 566.135 534.384 565.751C535.04 565.367 535.512 564.807 535.8 564.071L536.256 565.655C535.952 566.407 535.416 567.007 534.648 567.455C533.88 567.887 532.912 568.103 531.744 568.103ZM546.015 568.103C544.959 568.103 543.951 567.959 542.991 567.671C542.047 567.383 541.303 567.031 540.759 566.615L541.719 564.791C542.263 565.159 542.935 565.471 543.735 565.727C544.535 565.983 545.351 566.111 546.183 566.111C547.255 566.111 548.023 565.959 548.487 565.655C548.967 565.351 549.207 564.927 549.207 564.383C549.207 563.983 549.063 563.671 548.775 563.447C548.487 563.223 548.103 563.055 547.623 562.943C547.159 562.831 546.639 562.735 546.063 562.655C545.487 562.559 544.911 562.447 544.335 562.319C543.759 562.175 543.231 561.983 542.751 561.743C542.271 561.487 541.887 561.143 541.599 560.711C541.311 560.263 541.167 559.671 541.167 558.935C541.167 558.167 541.383 557.495 541.815 556.919C542.247 556.343 542.855 555.903 543.639 555.599C544.439 555.279 545.383 555.119 546.471 555.119C547.303 555.119 548.143 555.223 548.991 555.431C549.855 555.623 550.559 555.903 551.103 556.271L550.119 558.095C549.543 557.711 548.943 557.447 548.319 557.303C547.695 557.159 547.071 557.087 546.447 557.087C545.439 557.087 544.687 557.255 544.191 557.591C543.695 557.911 543.447 558.327 543.447 558.839C543.447 559.271 543.591 559.607 543.879 559.847C544.183 560.071 544.567 560.247 545.031 560.375C545.511 560.503 546.039 560.615 546.615 560.711C547.191 560.791 547.767 560.903 548.343 561.047C548.919 561.175 549.439 561.359 549.903 561.599C550.383 561.839 550.767 562.175 551.055 562.607C551.359 563.039 551.511 563.615 551.511 564.335C551.511 565.103 551.287 565.767 550.839 566.327C550.391 566.887 549.759 567.327 548.943 567.647C548.127 567.951 547.151 568.103 546.015 568.103ZM558.039 568.103C556.983 568.103 555.975 567.959 555.015 567.671C554.071 567.383 553.327 567.031 552.783 566.615L553.743 564.791C554.287 565.159 554.959 565.471 555.759 565.727C556.559 565.983 557.375 566.111 558.207 566.111C559.279 566.111 560.047 565.959 560.511 565.655C560.991 565.351 561.231 564.927 561.231 564.383C561.231 563.983 561.087 563.671 560.799 563.447C560.511 563.223 560.127 563.055 559.647 562.943C559.183 562.831 558.663 562.735 558.087 562.655C557.511 562.559 556.935 562.447 556.359 562.319C555.783 562.175 555.255 561.983 554.775 561.743C554.295 561.487 553.911 561.143 553.623 560.711C553.335 560.263 553.191 559.671 553.191 558.935C553.191 558.167 553.407 557.495 553.839 556.919C554.271 556.343 554.879 555.903 555.663 555.599C556.463 555.279 557.407 555.119 558.495 555.119C559.327 555.119 560.167 555.223 561.015 555.431C561.879 555.623 562.583 555.903 563.127 556.271L562.143 558.095C561.567 557.711 560.967 557.447 560.343 557.303C559.719 557.159 559.095 557.087 558.471 557.087C557.463 557.087 556.711 557.255 556.215 557.591C555.719 557.911 555.471 558.327 555.471 558.839C555.471 559.271 555.615 559.607 555.903 559.847C556.207 560.071 556.591 560.247 557.055 560.375C557.535 560.503 558.063 560.615 558.639 560.711C559.215 560.791 559.791 560.903 560.367 561.047C560.943 561.175 561.463 561.359 561.927 561.599C562.407 561.839 562.791 562.175 563.079 562.607C563.383 563.039 563.535 563.615 563.535 564.335C563.535 565.103 563.311 565.767 562.863 566.327C562.415 566.887 561.783 567.327 560.967 567.647C560.151 567.951 559.175 568.103 558.039 568.103ZM568.868 567.959L564.14 555.239H566.324L570.524 566.759H569.492L573.86 555.239H575.804L580.076 566.759H579.068L583.364 555.239H585.428L580.676 567.959H578.468L574.46 557.447H575.132L571.076 567.959H568.868ZM592.862 568.103C591.582 568.103 590.446 567.823 589.454 567.263C588.462 566.703 587.678 565.935 587.102 564.959C586.526 563.967 586.238 562.847 586.238 561.599C586.238 560.335 586.526 559.215 587.102 558.239C587.678 557.263 588.462 556.503 589.454 555.959C590.446 555.399 591.582 555.119 592.862 555.119C594.126 555.119 595.254 555.399 596.246 555.959C597.254 556.503 598.038 557.263 598.598 558.239C599.174 559.199 599.462 560.319 599.462 561.599C599.462 562.863 599.174 563.983 598.598 564.959C598.038 565.935 597.254 566.703 596.246 567.263C595.254 567.823 594.126 568.103 592.862 568.103ZM592.862 566.087C593.678 566.087 594.406 565.903 595.046 565.535C595.702 565.167 596.214 564.647 596.582 563.975C596.95 563.287 597.134 562.495 597.134 561.599C597.134 560.687 596.95 559.903 596.582 559.247C596.214 558.575 595.702 558.055 595.046 557.687C594.406 557.319 593.678 557.135 592.862 557.135C592.046 557.135 591.318 557.319 590.678 557.687C590.038 558.055 589.526 558.575 589.142 559.247C588.758 559.903 588.566 560.687 588.566 561.599C588.566 562.495 588.758 563.287 589.142 563.975C589.526 564.647 590.038 565.167 590.678 565.535C591.318 565.903 592.046 566.087 592.862 566.087ZM602.649 567.959V555.239H604.857V558.695L604.641 557.831C604.993 556.951 605.585 556.279 606.417 555.815C607.249 555.351 608.273 555.119 609.489 555.119V557.351C609.393 557.335 609.297 557.327 609.201 557.327C609.121 557.327 609.041 557.327 608.961 557.327C607.729 557.327 606.753 557.695 606.033 558.431C605.313 559.167 604.953 560.231 604.953 561.623V567.959H602.649ZM617.467 568.103C616.235 568.103 615.131 567.831 614.155 567.287C613.195 566.743 612.435 565.983 611.875 565.007C611.315 564.031 611.035 562.895 611.035 561.599C611.035 560.303 611.315 559.175 611.875 558.215C612.435 557.239 613.195 556.479 614.155 555.935C615.131 555.391 616.235 555.119 617.467 555.119C618.539 555.119 619.507 555.359 620.371 555.839C621.235 556.319 621.923 557.039 622.435 557.999C622.963 558.959 623.227 560.159 623.227 561.599C623.227 563.039 622.971 564.239 622.459 565.199C621.963 566.159 621.283 566.887 620.419 567.383C619.555 567.863 618.571 568.103 617.467 568.103ZM617.659 566.087C618.459 566.087 619.179 565.903 619.819 565.535C620.475 565.167 620.987 564.647 621.355 563.975C621.739 563.287 621.931 562.495 621.931 561.599C621.931 560.687 621.739 559.903 621.355 559.247C620.987 558.575 620.475 558.055 619.819 557.687C619.179 557.319 618.459 557.135 617.659 557.135C616.843 557.135 616.115 557.319 615.475 557.687C614.835 558.055 614.323 558.575 613.939 559.247C613.555 559.903 613.363 560.687 613.363 561.599C613.363 562.495 613.555 563.287 613.939 563.975C614.323 564.647 614.835 565.167 615.475 565.535C616.115 565.903 616.843 566.087 617.659 566.087ZM622.003 567.959V564.527L622.147 561.575L621.907 558.623V550.151H624.211V567.959H622.003Z" fill="black"/>
<path d="M442.779 841.614H451.443V843.678H442.779V841.614ZM443.019 850.47H440.619V833.67H452.475V835.758H443.019V850.47ZM460.567 850.614C459.287 850.614 458.151 850.334 457.159 849.774C456.167 849.214 455.383 848.446 454.807 847.47C454.231 846.478 453.943 845.358 453.943 844.11C453.943 842.846 454.231 841.726 454.807 840.75C455.383 839.774 456.167 839.014 457.159 838.47C458.151 837.91 459.287 837.63 460.567 837.63C461.831 837.63 462.959 837.91 463.951 838.47C464.959 839.014 465.743 839.774 466.303 840.75C466.879 841.71 467.167 842.83 467.167 844.11C467.167 845.374 466.879 846.494 466.303 847.47C465.743 848.446 464.959 849.214 463.951 849.774C462.959 850.334 461.831 850.614 460.567 850.614ZM460.567 848.598C461.383 848.598 462.111 848.414 462.751 848.046C463.407 847.678 463.919 847.158 464.287 846.486C464.655 845.798 464.839 845.006 464.839 844.11C464.839 843.198 464.655 842.414 464.287 841.758C463.919 841.086 463.407 840.566 462.751 840.198C462.111 839.83 461.383 839.646 460.567 839.646C459.751 839.646 459.023 839.83 458.383 840.198C457.743 840.566 457.231 841.086 456.847 841.758C456.463 842.414 456.271 843.198 456.271 844.11C456.271 845.006 456.463 845.798 456.847 846.486C457.231 847.158 457.743 847.678 458.383 848.046C459.023 848.414 459.751 848.598 460.567 848.598ZM470.353 850.47V837.75H472.561V841.206L472.345 840.342C472.697 839.462 473.289 838.79 474.121 838.326C474.953 837.862 475.977 837.63 477.193 837.63V839.862C477.097 839.846 477.001 839.838 476.905 839.838C476.825 839.838 476.745 839.838 476.665 839.838C475.433 839.838 474.457 840.206 473.737 840.942C473.017 841.678 472.657 842.742 472.657 844.134V850.47H470.353ZM485.484 855.27C484.316 855.27 483.18 855.102 482.076 854.766C480.988 854.446 480.1 853.982 479.412 853.374L480.516 851.598C481.108 852.11 481.836 852.51 482.7 852.798C483.564 853.102 484.468 853.254 485.412 853.254C486.916 853.254 488.02 852.902 488.724 852.198C489.428 851.494 489.78 850.422 489.78 848.982V846.294L490.02 843.774L489.9 841.23V837.75H492.084V848.742C492.084 850.982 491.524 852.63 490.404 853.686C489.284 854.742 487.644 855.27 485.484 855.27ZM485.196 849.942C483.964 849.942 482.86 849.686 481.884 849.174C480.924 848.646 480.156 847.918 479.58 846.99C479.02 846.062 478.74 844.99 478.74 843.774C478.74 842.542 479.02 841.47 479.58 840.558C480.156 839.63 480.924 838.91 481.884 838.398C482.86 837.886 483.964 837.63 485.196 837.63C486.284 837.63 487.276 837.854 488.172 838.302C489.068 838.734 489.78 839.406 490.308 840.318C490.852 841.23 491.124 842.382 491.124 843.774C491.124 845.15 490.852 846.294 490.308 847.206C489.78 848.118 489.068 848.806 488.172 849.27C487.276 849.718 486.284 849.942 485.196 849.942ZM485.46 847.926C486.308 847.926 487.06 847.75 487.716 847.398C488.372 847.046 488.884 846.558 489.252 845.934C489.636 845.31 489.828 844.59 489.828 843.774C489.828 842.958 489.636 842.238 489.252 841.614C488.884 840.99 488.372 840.51 487.716 840.174C487.06 839.822 486.308 839.646 485.46 839.646C484.612 839.646 483.852 839.822 483.18 840.174C482.524 840.51 482.004 840.99 481.62 841.614C481.252 842.238 481.068 842.958 481.068 843.774C481.068 844.59 481.252 845.31 481.62 845.934C482.004 846.558 482.524 847.046 483.18 847.398C483.852 847.75 484.612 847.926 485.46 847.926ZM501.934 850.614C500.654 850.614 499.518 850.334 498.526 849.774C497.534 849.214 496.75 848.446 496.174 847.47C495.598 846.478 495.31 845.358 495.31 844.11C495.31 842.846 495.598 841.726 496.174 840.75C496.75 839.774 497.534 839.014 498.526 838.47C499.518 837.91 500.654 837.63 501.934 837.63C503.198 837.63 504.326 837.91 505.318 838.47C506.326 839.014 507.11 839.774 507.67 840.75C508.246 841.71 508.534 842.83 508.534 844.11C508.534 845.374 508.246 846.494 507.67 847.47C507.11 848.446 506.326 849.214 505.318 849.774C504.326 850.334 503.198 850.614 501.934 850.614ZM501.934 848.598C502.75 848.598 503.478 848.414 504.118 848.046C504.774 847.678 505.286 847.158 505.654 846.486C506.022 845.798 506.206 845.006 506.206 844.11C506.206 843.198 506.022 842.414 505.654 841.758C505.286 841.086 504.774 840.566 504.118 840.198C503.478 839.83 502.75 839.646 501.934 839.646C501.118 839.646 500.39 839.83 499.75 840.198C499.11 840.566 498.598 841.086 498.214 841.758C497.83 842.414 497.638 843.198 497.638 844.11C497.638 845.006 497.83 845.798 498.214 846.486C498.598 847.158 499.11 847.678 499.75 848.046C500.39 848.414 501.118 848.598 501.934 848.598ZM516.088 850.614C514.808 850.614 513.816 850.27 513.112 849.582C512.408 848.894 512.056 847.91 512.056 846.63V834.966H514.36V846.534C514.36 847.222 514.528 847.75 514.864 848.118C515.216 848.486 515.712 848.67 516.352 848.67C517.072 848.67 517.672 848.47 518.152 848.07L518.872 849.726C518.52 850.03 518.096 850.254 517.6 850.398C517.12 850.542 516.616 850.614 516.088 850.614ZM509.896 839.646V837.75H518.008V839.646H509.896ZM528.439 850.47V833.67H534.991C536.463 833.67 537.719 833.902 538.759 834.366C539.799 834.83 540.599 835.502 541.159 836.382C541.719 837.262 541.999 838.31 541.999 839.526C541.999 840.742 541.719 841.79 541.159 842.67C540.599 843.534 539.799 844.206 538.759 844.686C537.719 845.15 536.463 845.382 534.991 845.382H529.759L530.839 844.254V850.47H528.439ZM530.839 844.494L529.759 843.294H534.919C536.455 843.294 537.615 842.966 538.399 842.31C539.199 841.654 539.599 840.726 539.599 839.526C539.599 838.326 539.199 837.398 538.399 836.742C537.615 836.086 536.455 835.758 534.919 835.758H529.759L530.839 834.558V844.494ZM552.968 850.47V847.782L552.848 847.278V842.694C552.848 841.718 552.56 840.966 551.984 840.438C551.424 839.894 550.576 839.622 549.44 839.622C548.688 839.622 547.952 839.75 547.232 840.006C546.512 840.246 545.904 840.574 545.408 840.99L544.448 839.262C545.104 838.734 545.888 838.334 546.8 838.062C547.728 837.774 548.696 837.63 549.704 837.63C551.448 837.63 552.792 838.054 553.736 838.902C554.68 839.75 555.152 841.046 555.152 842.79V850.47H552.968ZM548.792 850.614C547.848 850.614 547.016 850.454 546.296 850.134C545.592 849.814 545.048 849.374 544.664 848.814C544.28 848.238 544.088 847.59 544.088 846.87C544.088 846.182 544.248 845.558 544.568 844.998C544.904 844.438 545.44 843.99 546.176 843.654C546.928 843.318 547.936 843.15 549.2 843.15H553.232V844.806H549.296C548.144 844.806 547.368 844.998 546.968 845.382C546.568 845.766 546.368 846.23 546.368 846.774C546.368 847.398 546.616 847.902 547.112 848.286C547.608 848.654 548.296 848.838 549.176 848.838C550.04 848.838 550.792 848.646 551.432 848.262C552.088 847.878 552.56 847.318 552.848 846.582L553.304 848.166C553 848.918 552.464 849.518 551.696 849.966C550.928 850.398 549.96 850.614 548.792 850.614ZM563.064 850.614C562.008 850.614 561 850.47 560.04 850.182C559.096 849.894 558.352 849.542 557.808 849.126L558.768 847.302C559.312 847.67 559.984 847.982 560.784 848.238C561.584 848.494 562.4 848.622 563.232 848.622C564.304 848.622 565.072 848.47 565.536 848.166C566.016 847.862 566.256 847.438 566.256 846.894C566.256 846.494 566.112 846.182 565.824 845.958C565.536 845.734 565.152 845.566 564.672 845.454C564.208 845.342 563.688 845.246 563.112 845.166C562.536 845.07 561.96 844.958 561.384 844.83C560.808 844.686 560.28 844.494 559.8 844.254C559.32 843.998 558.936 843.654 558.648 843.222C558.36 842.774 558.216 842.182 558.216 841.446C558.216 840.678 558.432 840.006 558.864 839.43C559.296 838.854 559.904 838.414 560.688 838.11C561.488 837.79 562.432 837.63 563.52 837.63C564.352 837.63 565.192 837.734 566.04 837.942C566.904 838.134 567.608 838.414 568.152 838.782L567.168 840.606C566.592 840.222 565.992 839.958 565.368 839.814C564.744 839.67 564.12 839.598 563.496 839.598C562.488 839.598 561.736 839.766 561.24 840.102C560.744 840.422 560.496 840.838 560.496 841.35C560.496 841.782 560.64 842.118 560.928 842.358C561.232 842.582 561.616 842.758 562.08 842.886C562.56 843.014 563.088 843.126 563.664 843.222C564.24 843.302 564.816 843.414 565.392 843.558C565.968 843.686 566.488 843.87 566.952 844.11C567.432 844.35 567.816 844.686 568.104 845.118C568.408 845.55 568.56 846.126 568.56 846.846C568.56 847.614 568.336 848.278 567.888 848.838C567.44 849.398 566.808 849.838 565.992 850.158C565.176 850.462 564.2 850.614 563.064 850.614ZM575.087 850.614C574.031 850.614 573.023 850.47 572.063 850.182C571.119 849.894 570.375 849.542 569.831 849.126L570.791 847.302C571.335 847.67 572.007 847.982 572.807 848.238C573.607 848.494 574.423 848.622 575.255 848.622C576.327 848.622 577.095 848.47 577.559 848.166C578.039 847.862 578.279 847.438 578.279 846.894C578.279 846.494 578.135 846.182 577.847 845.958C577.559 845.734 577.175 845.566 576.695 845.454C576.231 845.342 575.711 845.246 575.135 845.166C574.559 845.07 573.983 844.958 573.407 844.83C572.831 844.686 572.303 844.494 571.823 844.254C571.343 843.998 570.959 843.654 570.671 843.222C570.383 842.774 570.239 842.182 570.239 841.446C570.239 840.678 570.455 840.006 570.887 839.43C571.319 838.854 571.927 838.414 572.711 838.11C573.511 837.79 574.455 837.63 575.543 837.63C576.375 837.63 577.215 837.734 578.063 837.942C578.927 838.134 579.631 838.414 580.175 838.782L579.191 840.606C578.615 840.222 578.015 839.958 577.391 839.814C576.767 839.67 576.143 839.598 575.519 839.598C574.511 839.598 573.759 839.766 573.263 840.102C572.767 840.422 572.519 840.838 572.519 841.35C572.519 841.782 572.663 842.118 572.951 842.358C573.255 842.582 573.639 842.758 574.103 842.886C574.583 843.014 575.111 843.126 575.687 843.222C576.263 843.302 576.839 843.414 577.415 843.558C577.991 843.686 578.511 843.87 578.975 844.11C579.455 844.35 579.839 844.686 580.127 845.118C580.431 845.55 580.583 846.126 580.583 846.846C580.583 847.614 580.359 848.278 579.911 848.838C579.463 849.398 578.831 849.838 578.015 850.158C577.199 850.462 576.223 850.614 575.087 850.614ZM585.916 850.47L581.188 837.75H583.372L587.572 849.27H586.54L590.908 837.75H592.852L597.124 849.27H596.116L600.412 837.75H602.476L597.724 850.47H595.516L591.508 839.958H592.18L588.124 850.47H585.916ZM609.911 850.614C608.631 850.614 607.495 850.334 606.503 849.774C605.511 849.214 604.727 848.446 604.151 847.47C603.575 846.478 603.287 845.358 603.287 844.11C603.287 842.846 603.575 841.726 604.151 840.75C604.727 839.774 605.511 839.014 606.503 838.47C607.495 837.91 608.631 837.63 609.911 837.63C611.175 837.63 612.303 837.91 613.295 838.47C614.303 839.014 615.087 839.774 615.647 840.75C616.223 841.71 616.511 842.83 616.511 844.11C616.511 845.374 616.223 846.494 615.647 847.47C615.087 848.446 614.303 849.214 613.295 849.774C612.303 850.334 611.175 850.614 609.911 850.614ZM609.911 848.598C610.727 848.598 611.455 848.414 612.095 848.046C612.751 847.678 613.263 847.158 613.631 846.486C613.999 845.798 614.183 845.006 614.183 844.11C614.183 843.198 613.999 842.414 613.631 841.758C613.263 841.086 612.751 840.566 612.095 840.198C611.455 839.83 610.727 839.646 609.911 839.646C609.095 839.646 608.367 839.83 607.727 840.198C607.087 840.566 606.575 841.086 606.191 841.758C605.807 842.414 605.615 843.198 605.615 844.11C605.615 845.006 605.807 845.798 606.191 846.486C606.575 847.158 607.087 847.678 607.727 848.046C608.367 848.414 609.095 848.598 609.911 848.598ZM619.697 850.47V837.75H621.905V841.206L621.689 840.342C622.041 839.462 622.633 838.79 623.465 838.326C624.297 837.862 625.321 837.63 626.537 837.63V839.862C626.441 839.846 626.345 839.838 626.249 839.838C626.169 839.838 626.089 839.838 626.009 839.838C624.777 839.838 623.801 840.206 623.081 840.942C622.361 841.678 622.001 842.742 622.001 844.134V850.47H619.697ZM634.515 850.614C633.283 850.614 632.179 850.342 631.203 849.798C630.243 849.254 629.483 848.494 628.923 847.518C628.363 846.542 628.083 845.406 628.083 844.11C628.083 842.814 628.363 841.686 628.923 840.726C629.483 839.75 630.243 838.99 631.203 838.446C632.179 837.902 633.283 837.63 634.515 837.63C635.587 837.63 636.555 837.87 637.419 838.35C638.283 838.83 638.971 839.55 639.483 840.51C640.011 841.47 640.275 842.67 640.275 844.11C640.275 845.55 640.019 846.75 639.507 847.71C639.011 848.67 638.331 849.398 637.467 849.894C636.603 850.374 635.619 850.614 634.515 850.614ZM634.707 848.598C635.507 848.598 636.227 848.414 636.867 848.046C637.523 847.678 638.035 847.158 638.403 846.486C638.787 845.798 638.979 845.006 638.979 844.11C638.979 843.198 638.787 842.414 638.403 841.758C638.035 841.086 637.523 840.566 636.867 840.198C636.227 839.83 635.507 839.646 634.707 839.646C633.891 839.646 633.163 839.83 632.523 840.198C631.883 840.566 631.371 841.086 630.987 841.758C630.603 842.414 630.411 843.198 630.411 844.11C630.411 845.006 630.603 845.798 630.987 846.486C631.371 847.158 631.883 847.678 632.523 848.046C633.163 848.414 633.891 848.598 634.707 848.598ZM639.051 850.47V847.038L639.195 844.086L638.955 841.134V832.662H641.259V850.47H639.051Z" fill="#202020" fill-opacity="0.25"/>
<path d="M935.421 850.47V833.67H937.821V848.382H946.917V850.47H935.421ZM954.619 850.614C953.339 850.614 952.203 850.334 951.211 849.774C950.219 849.214 949.435 848.446 948.859 847.47C948.283 846.478 947.995 845.358 947.995 844.11C947.995 842.846 948.283 841.726 948.859 840.75C949.435 839.774 950.219 839.014 951.211 838.47C952.203 837.91 953.339 837.63 954.619 837.63C955.883 837.63 957.011 837.91 958.003 838.47C959.011 839.014 959.795 839.774 960.355 840.75C960.931 841.71 961.219 842.83 961.219 844.11C961.219 845.374 960.931 846.494 960.355 847.47C959.795 848.446 959.011 849.214 958.003 849.774C957.011 850.334 955.883 850.614 954.619 850.614ZM954.619 848.598C955.435 848.598 956.163 848.414 956.803 848.046C957.459 847.678 957.971 847.158 958.339 846.486C958.707 845.798 958.891 845.006 958.891 844.11C958.891 843.198 958.707 842.414 958.339 841.758C957.971 841.086 957.459 840.566 956.803 840.198C956.163 839.83 955.435 839.646 954.619 839.646C953.803 839.646 953.075 839.83 952.435 840.198C951.795 840.566 951.283 841.086 950.899 841.758C950.515 842.414 950.323 843.198 950.323 844.11C950.323 845.006 950.515 845.798 950.899 846.486C951.283 847.158 951.795 847.678 952.435 848.046C953.075 848.414 953.803 848.598 954.619 848.598ZM969.973 855.27C968.805 855.27 967.669 855.102 966.565 854.766C965.477 854.446 964.589 853.982 963.901 853.374L965.005 851.598C965.597 852.11 966.325 852.51 967.189 852.798C968.053 853.102 968.957 853.254 969.901 853.254C971.405 853.254 972.509 852.902 973.213 852.198C973.917 851.494 974.269 850.422 974.269 848.982V846.294L974.509 843.774L974.389 841.23V837.75H976.573V848.742C976.573 850.982 976.013 852.63 974.893 853.686C973.773 854.742 972.133 855.27 969.973 855.27ZM969.685 849.942C968.453 849.942 967.349 849.686 966.373 849.174C965.413 848.646 964.645 847.918 964.069 846.99C963.509 846.062 963.229 844.99 963.229 843.774C963.229 842.542 963.509 841.47 964.069 840.558C964.645 839.63 965.413 838.91 966.373 838.398C967.349 837.886 968.453 837.63 969.685 837.63C970.773 837.63 971.765 837.854 972.661 838.302C973.557 838.734 974.269 839.406 974.797 840.318C975.341 841.23 975.613 842.382 975.613 843.774C975.613 845.15 975.341 846.294 974.797 847.206C974.269 848.118 973.557 848.806 972.661 849.27C971.765 849.718 970.773 849.942 969.685 849.942ZM969.949 847.926C970.797 847.926 971.549 847.75 972.205 847.398C972.861 847.046 973.373 846.558 973.741 845.934C974.125 845.31 974.317 844.59 974.317 843.774C974.317 842.958 974.125 842.238 973.741 841.614C973.373 840.99 972.861 840.51 972.205 840.174C971.549 839.822 970.797 839.646 969.949 839.646C969.101 839.646 968.341 839.822 967.669 840.174C967.013 840.51 966.493 840.99 966.109 841.614C965.741 842.238 965.557 842.958 965.557 843.774C965.557 844.59 965.741 845.31 966.109 845.934C966.493 846.558 967.013 847.046 967.669 847.398C968.341 847.75 969.101 847.926 969.949 847.926ZM980.976 850.47V837.75H983.28V850.47H980.976ZM982.128 835.302C981.68 835.302 981.304 835.158 981 834.87C980.712 834.582 980.568 834.23 980.568 833.814C980.568 833.382 980.712 833.022 981 832.734C981.304 832.446 981.68 832.302 982.128 832.302C982.576 832.302 982.944 832.446 983.232 832.734C983.536 833.006 983.688 833.35 983.688 833.766C983.688 834.198 983.544 834.566 983.256 834.87C982.968 835.158 982.592 835.302 982.128 835.302ZM994.471 837.63C995.511 837.63 996.423 837.83 997.207 838.23C998.007 838.63 998.631 839.238 999.079 840.054C999.527 840.87 999.751 841.902 999.751 843.15V850.47H997.447V843.414C997.447 842.182 997.143 841.254 996.535 840.63C995.943 840.006 995.103 839.694 994.015 839.694C993.199 839.694 992.487 839.854 991.879 840.174C991.271 840.494 990.799 840.966 990.463 841.59C990.143 842.214 989.983 842.99 989.983 843.918V850.47H987.679V837.75H989.887V841.182L989.527 840.27C989.943 839.438 990.583 838.79 991.447 838.326C992.311 837.862 993.319 837.63 994.471 837.63Z" fill="#202020" fill-opacity="0.25"/>
<defs>
<filter id="filter0_d_1_44" x="268.593" y="45.8757" width="902.813" height="855.5" filterUnits="userSpaceOnUse" color-interpolation-filters="sRGB">
<feFlood flood-opacity="0" result="BackgroundImageFix"/>
<feColorMatrix in="SourceAlpha" type="matrix" values="0 0 0 0 0 0 0 0 0 0 0 0 0 0 0 0 0 0 127 0" result="hardAlpha"/>
<feMorphology radius="1" operator="dilate" in="SourceAlpha" result="effect1_dropShadow_1_44"/>
<feOffset/>
<feGaussianBlur stdDeviation="10"/>
<feComposite in2="hardAlpha" operator="out"/>
<feColorMatrix type="matrix" values="0 0 0 0 0 0 0 0 0 0 0 0 0 0 0 0 0 0 0.25 0"/>
<feBlend mode="normal" in2="BackgroundImageFix" result="effect1_dropShadow_1_44"/>
<feBlend mode="normal" in="SourceGraphic" in2="effect1_dropShadow_1_44" result="shape"/>
</filter>
</defs>
</svg>
